<svg width="52" height="41" viewBox="0 0 52 41" fill="none" xmlns="http://www.w3.org/2000/svg">
<path d="M49.0152 32.3728C49.0451 34.4407 48.5581 36.0067 47.5541 37.0707C46.5501 38.1496 45.0291 38.6891 42.9911 38.6891H7.97022C6.29185 38.6891 5.0181 38.1871 4.14895 37.1831C3.29478 36.194 2.83772 34.7255 2.77778 32.7774L10.8699 25.5394C11.3045 25.1348 11.7465 24.8351 12.1961 24.6403C12.6457 24.4455 13.1102 24.3481 13.5897 24.3481C14.0843 24.3481 14.5713 24.453 15.0508 24.6628C15.5453 24.8726 16.0174 25.1723 16.4669 25.5619L20.3781 29.1134L29.9987 20.5268C30.4783 20.0922 30.9803 19.7776 31.5048 19.5827C32.0442 19.3729 32.6062 19.268 33.1906 19.268C33.7601 19.268 34.3145 19.3804 34.854 19.6052C35.4084 19.815 35.918 20.1297 36.3825 20.5493L49.0152 32.3728ZM17.1188 20.9089C16.1897 20.9089 15.343 20.6842 14.5788 20.2346C13.8145 19.7701 13.2001 19.1557 12.7356 18.3914C12.286 17.6272 12.0612 16.773 12.0612 15.8289C12.0612 14.9298 12.286 14.0981 12.7356 13.3338C13.2001 12.5546 13.8145 11.9327 14.5788 11.4682C15.343 11.0036 16.1897 10.7713 17.1188 10.7713C18.0479 10.7713 18.8871 11.0036 19.6363 11.4682C20.4006 11.9327 21.0075 12.5546 21.4571 13.3338C21.9216 14.0981 22.1539 14.9298 22.1539 15.8289C22.1539 16.773 21.9216 17.6272 21.4571 18.3914C21.0075 19.1557 20.4006 19.7701 19.6363 20.2346C18.8871 20.6842 18.0479 20.9089 17.1188 20.9089ZM7.76791 40.33C5.52011 40.33 3.81927 39.7606 2.66539 38.6217C1.51152 37.4978 0.934581 35.8194 0.934581 33.5866V7.64689C0.934581 5.41407 1.51152 3.7357 2.66539 2.6118C3.81927 1.47291 5.52011 0.903466 7.76791 0.903466H44.3622C46.64 0.903466 48.3483 1.47291 49.4872 2.6118C50.6261 3.7357 51.1955 5.41407 51.1955 7.64689V33.5866C51.1955 35.8194 50.6261 37.4978 49.4872 38.6217C48.3483 39.7606 46.64 40.33 44.3622 40.33H7.76791ZM7.92526 36.5087H44.2049C45.2239 36.5087 46.0106 36.239 46.5651 35.6995C47.1195 35.16 47.3968 34.3658 47.3968 33.3168V7.91662C47.3968 6.85266 47.1195 6.05094 46.5651 5.51147C46.0106 4.972 45.2239 4.70226 44.2049 4.70226H7.92526C6.90626 4.70226 6.12702 4.972 5.58754 5.51147C5.04807 6.05094 4.77833 6.85266 4.77833 7.91662V33.3168C4.77833 34.3658 5.04807 35.16 5.58754 35.6995C6.12702 36.239 6.90626 36.5087 7.92526 36.5087Z" fill="url(#paint0_radial_238_18)"/>
<defs>
<radialGradient id="paint0_radial_238_18" cx="0" cy="0" r="1" gradientUnits="userSpaceOnUse" gradientTransform="translate(90 -81.4033) rotate(135.61) scale(213.58 216.242)">
<stop stop-color="#4A4A4A"/>
<stop offset="0.515625" stop-color="#8456D0"/>
<stop offset="1" stop-color="#4A4A4A"/>
</radialGradient>
</defs>
</svg>
