<svg width="47" height="45" viewBox="0 0 47 45" fill="none" xmlns="http://www.w3.org/2000/svg">
<path d="M0.525041 43.1617C0.525041 42.6522 0.704866 42.2176 1.06451 41.858C1.42416 41.4983 1.85874 41.3185 2.36824 41.3185H44.7619C45.2714 41.3185 45.706 41.4983 46.0656 41.858C46.4253 42.2176 46.6051 42.6522 46.6051 43.1617C46.6051 43.6712 46.4253 44.1058 46.0656 44.4654C45.706 44.8251 45.2714 45.0049 44.7619 45.0049H2.36824C1.85874 45.0049 1.42416 44.8251 1.06451 44.4654C0.704866 44.1058 0.525041 43.6712 0.525041 43.1617ZM4.21144 18.8854V18.3684C4.21144 17.9038 4.33882 17.5442 4.59357 17.2894C4.86331 17.0347 5.23045 16.9073 5.695 16.9073H11.0673C11.5318 16.9073 11.8915 17.0347 12.1462 17.2894C12.401 17.5442 12.5283 17.9038 12.5283 18.3684V18.8854C12.5283 19.3499 12.401 19.7171 12.1462 19.9868C11.8915 20.2416 11.5318 20.3689 11.0673 20.3689H5.695C5.23045 20.3689 4.86331 20.2416 4.59357 19.9868C4.33882 19.7171 4.21144 19.3499 4.21144 18.8854ZM6.68403 36.7554V18.9978H10.1457V36.7554H6.68403ZM4.21144 37.9468V37.4298C4.21144 36.9802 4.33882 36.6281 4.59357 36.3733C4.86331 36.1186 5.23045 35.9912 5.695 35.9912H11.0673C11.5318 35.9912 11.8915 36.1186 12.1462 36.3733C12.401 36.6281 12.5283 36.9802 12.5283 37.4298V37.9468C12.5283 38.4113 12.401 38.771 12.1462 39.0257C11.8915 39.2955 11.5318 39.4303 11.0673 39.4303H5.695C5.23045 39.4303 4.86331 39.2955 4.59357 39.0257C4.33882 38.771 4.21144 38.4113 4.21144 37.9468ZM14.394 18.8854V18.3684C14.394 17.9038 14.5214 17.5442 14.7761 17.2894C15.0459 17.0347 15.413 16.9073 15.8776 16.9073H21.2273C21.7069 16.9073 22.074 17.0347 22.3288 17.2894C22.5985 17.5442 22.7334 17.9038 22.7334 18.3684V18.8854C22.7334 19.3499 22.5985 19.7171 22.3288 19.9868C22.074 20.2416 21.7069 20.3689 21.2273 20.3689H15.8776C15.413 20.3689 15.0459 20.2416 14.7761 19.9868C14.5214 19.7171 14.394 19.3499 14.394 18.8854ZM16.8441 36.7554V18.9978H20.3057V36.7554H16.8441ZM14.394 37.9468V37.4298C14.394 36.9802 14.5214 36.6281 14.7761 36.3733C15.0459 36.1186 15.413 35.9912 15.8776 35.9912H21.2273C21.7069 35.9912 22.074 36.1186 22.3288 36.3733C22.5985 36.6281 22.7334 36.9802 22.7334 37.4298V37.9468C22.7334 38.4113 22.5985 38.771 22.3288 39.0257C22.074 39.2955 21.7069 39.4303 21.2273 39.4303H15.8776C15.413 39.4303 15.0459 39.2955 14.7761 39.0257C14.5214 38.771 14.394 38.4113 14.394 37.9468ZM24.5991 18.8854V18.3684C24.5991 17.9038 24.7264 17.5442 24.9812 17.2894C25.2509 17.0347 25.6181 16.9073 26.0826 16.9073H31.4549C31.9194 16.9073 32.2791 17.0347 32.5338 17.2894C32.8035 17.5442 32.9384 17.9038 32.9384 18.3684V18.8854C32.9384 19.3499 32.8035 19.7171 32.5338 19.9868C32.2791 20.2416 31.9194 20.3689 31.4549 20.3689H26.0826C25.6181 20.3689 25.2509 20.2416 24.9812 19.9868C24.7264 19.7171 24.5991 19.3499 24.5991 18.8854ZM27.0492 36.7554V18.9978H30.5108V36.7554H27.0492ZM24.5991 37.9468V37.4298C24.5991 36.9802 24.7264 36.6281 24.9812 36.3733C25.2509 36.1186 25.6181 35.9912 26.0826 35.9912H31.4549C31.9194 35.9912 32.2791 36.1186 32.5338 36.3733C32.8035 36.6281 32.9384 36.9802 32.9384 37.4298V37.9468C32.9384 38.4113 32.8035 38.771 32.5338 39.0257C32.2791 39.2955 31.9194 39.4303 31.4549 39.4303H26.0826C25.6181 39.4303 25.2509 39.2955 24.9812 39.0257C24.7264 38.771 24.5991 38.4113 24.5991 37.9468ZM34.7816 18.8854V18.3684C34.7816 17.9038 34.909 17.5442 35.1637 17.2894C35.4335 17.0347 35.8006 16.9073 36.2652 16.9073H41.6374C42.087 16.9073 42.4391 17.0347 42.6939 17.2894C42.9636 17.5442 43.0985 17.9038 43.0985 18.3684V18.8854C43.0985 19.3499 42.9636 19.7171 42.6939 19.9868C42.4391 20.2416 42.087 20.3689 41.6374 20.3689H36.2652C35.8006 20.3689 35.4335 20.2416 35.1637 19.9868C34.909 19.7171 34.7816 19.3499 34.7816 18.8854ZM37.2093 36.7554V18.9978H40.6709V36.7554H37.2093ZM34.7816 37.9468V37.4298C34.7816 36.9802 34.909 36.6281 35.1637 36.3733C35.4335 36.1186 35.8006 35.9912 36.2652 35.9912H41.6374C42.087 35.9912 42.4391 36.1186 42.6939 36.3733C42.9636 36.6281 43.0985 36.9802 43.0985 37.4298V37.9468C43.0985 38.4113 42.9636 38.771 42.6939 39.0257C42.4391 39.2955 42.087 39.4303 41.6374 39.4303H36.2652C35.8006 39.4303 35.4335 39.2955 35.1637 39.0257C34.909 38.771 34.7816 38.4113 34.7816 37.9468ZM3.51462 15.0191C2.88524 15.0191 2.39821 14.8393 2.05355 14.4797C1.70889 14.105 1.53655 13.678 1.53655 13.1984C1.53655 12.8388 1.62647 12.5166 1.80629 12.2319C2.0011 11.9322 2.3083 11.6624 2.72789 11.4227L20.8902 0.947874C21.7593 0.453356 22.651 0.206098 23.5651 0.206098C24.4642 0.206098 25.3483 0.453356 26.2175 0.947874L44.3798 11.4227C44.7993 11.6624 45.0991 11.9322 45.2789 12.2319C45.4737 12.5166 45.5711 12.8388 45.5711 13.1984C45.5711 13.678 45.3988 14.105 45.0541 14.4797C44.7094 14.8393 44.2299 15.0191 43.6155 15.0191H3.51462ZM10.3704 11.3552H36.7372L24.3293 4.36454C24.0446 4.22967 23.7898 4.16224 23.5651 4.16224C23.3253 4.16224 23.0631 4.22967 22.7783 4.36454L10.3704 11.3552Z" fill="url(#paint0_radial_238_25)"/>
<defs>
<radialGradient id="paint0_radial_238_25" cx="0" cy="0" r="1" gradientUnits="userSpaceOnUse" gradientTransform="translate(82.3439 -79.4033) rotate(133.202) scale(204.965 207.159)">
<stop stop-color="#4A4A4A"/>
<stop offset="0.515625" stop-color="#8456D0"/>
<stop offset="1" stop-color="#4A4A4A"/>
</radialGradient>
</defs>
</svg>
