<svg width="44" height="52" viewBox="0 0 44 52" fill="none" xmlns="http://www.w3.org/2000/svg">
<path d="M25.3469 51.017C21.4357 51.017 18.3488 50.3351 16.086 48.9714C13.8382 47.6228 12.7142 45.7346 12.7142 43.307V40.9243L15.2767 43.4643L10.871 43.9364C9.01286 44.1462 7.46187 43.764 6.21809 42.79C4.9743 41.8159 4.35241 40.3324 4.35241 38.3393V34.4956C3.16856 34.2108 2.25445 33.6564 1.61008 32.8322C0.980695 31.993 0.666002 31.019 0.666002 29.91C0.666002 28.7112 1.02565 27.4824 1.74495 26.2236L4.41984 21.4583C4.38987 21.1886 4.36739 20.9188 4.35241 20.6491C4.33742 20.3644 4.32993 20.0572 4.32993 19.7275C4.32993 16.7754 4.79447 14.093 5.72357 11.6803C6.65266 9.26768 7.97887 7.19221 9.70219 5.4539C11.4255 3.7156 13.4785 2.3819 15.8612 1.45281C18.2588 0.508729 20.9187 0.0366897 23.8409 0.0366897C26.763 0.0366897 29.4229 0.516222 31.8206 1.47529C34.2333 2.43435 36.3012 3.80551 38.0246 5.58877C39.7629 7.35705 41.0966 9.47748 42.0257 11.9501C42.9697 14.4077 43.4418 17.15 43.4418 20.177C43.4418 22.7545 42.9772 25.1597 42.0481 27.3925C41.119 29.6253 39.8228 31.4835 38.1594 32.9671V43.307C38.1594 45.7346 37.013 47.6228 34.7203 48.9714C32.4425 50.3351 29.318 51.017 25.3469 51.017ZM25.3469 47.3081C28.1792 47.3081 30.397 46.8885 32.0004 46.0493C33.6189 45.2251 34.4281 44.1012 34.4281 42.6776V31.1014C36.0765 30.0824 37.3652 28.5988 38.2943 26.6507C39.2384 24.7026 39.7104 22.5447 39.7104 20.177C39.7104 16.8952 39.0436 14.0255 37.7099 11.5679C36.3911 9.09535 34.5405 7.17722 32.1578 5.81355C29.7901 4.44988 27.0178 3.76805 23.8409 3.76805C20.679 3.76805 17.9142 4.4349 15.5465 5.7686C13.1788 7.08731 11.3356 8.93801 10.0169 11.3207C8.69817 13.7034 8.03881 16.4831 8.03881 19.66C8.03881 20.0796 8.05379 20.5067 8.08376 20.9413C8.12872 21.3609 8.18866 21.7805 8.26359 22.2001L5.04923 27.9545C4.68958 28.6138 4.50975 29.2132 4.50975 29.7527C4.50975 30.2772 4.68958 30.6893 5.04923 30.989C5.40887 31.2887 5.91838 31.4386 6.57773 31.4386H7.58925C7.7391 31.4386 7.85149 31.476 7.92642 31.5509C8.01633 31.6259 8.06129 31.7308 8.06129 31.8656V38.0696C8.06129 38.8938 8.26359 39.4782 8.66819 39.8229C9.0728 40.1675 9.64974 40.3024 10.399 40.2275L15.7038 39.6206C15.8837 39.6056 16.026 39.643 16.1309 39.733C16.2358 39.8229 16.2883 39.9502 16.2883 40.1151V42.6776C16.2883 44.1012 17.09 45.2251 18.6934 46.0493C20.3118 46.8885 22.5297 47.3081 25.3469 47.3081ZM11.0958 16.5356C11.0958 15.4117 11.3805 14.3552 11.95 13.3662C12.5194 12.3622 13.2912 11.5904 14.2652 11.0509L15.2992 12.8941C14.6399 13.2538 14.1229 13.7633 13.7482 14.4227C13.3736 15.067 13.1863 15.7713 13.1863 16.5356C13.1863 17.7794 13.5759 18.7759 14.3551 19.5252C15.1494 20.2744 16.1909 20.6491 17.4796 20.6491C18.7683 20.6491 19.7873 20.3269 20.5366 19.6825C21.3009 19.0382 21.683 18.184 21.683 17.12C21.683 16.4457 21.4882 15.9287 21.0986 15.569C20.8888 15.3592 20.7015 15.1794 20.5366 15.0296C20.3868 14.8797 20.3118 14.6549 20.3118 14.3552C20.3118 14.0855 20.4092 13.8607 20.6041 13.6809C20.7989 13.5011 21.0386 13.4111 21.3233 13.4111C21.653 13.4111 22.0052 13.5685 22.3798 13.8832C22.8144 14.2428 23.1441 14.7074 23.3689 15.2768C23.6086 15.8463 23.7285 16.4757 23.7285 17.165C23.7285 18.8134 23.1516 20.1546 21.9977 21.1886C20.8438 22.2076 19.3303 22.7171 17.4571 22.7171C15.569 22.7171 14.033 22.1476 12.8491 21.0087C11.6803 19.8698 11.0958 18.3788 11.0958 16.5356ZM13.7258 11.4106C13.7258 10.2118 14.1528 9.21524 15.007 8.42101C15.8612 7.6118 16.9326 7.20719 18.2214 7.20719C18.8508 7.20719 19.4577 7.31209 20.0421 7.52189C20.6415 7.73168 21.181 8.0239 21.6605 8.39853L20.4467 10.1069C19.7724 9.56739 19.0306 9.29765 18.2214 9.29765C17.5171 9.29765 16.9326 9.49996 16.4681 9.90456C16.0185 10.2942 15.7937 10.7962 15.7937 11.4106C15.7937 11.995 15.9811 12.4596 16.3557 12.8042C16.7303 13.1489 17.2323 13.3212 17.8617 13.3212C18.1614 13.3212 18.4087 13.4261 18.6035 13.6359C18.8133 13.8457 18.9182 14.093 18.9182 14.3777C18.9182 14.6474 18.8133 14.8872 18.6035 15.097C18.4087 15.3068 18.1614 15.4117 17.8617 15.4117C16.6329 15.4117 15.6364 15.0445 14.8721 14.3103C14.1079 13.576 13.7258 12.6094 13.7258 11.4106ZM18.9407 11.1184C19.0006 9.6648 19.5101 8.47346 20.4692 7.54437C21.4282 6.61527 22.6271 6.15072 24.0657 6.15072C24.755 6.15072 25.3994 6.29309 25.9988 6.57781C26.6132 6.84754 27.1377 7.22218 27.5723 7.70171C27.6921 7.67174 27.8045 7.64926 27.9094 7.63428C28.0293 7.61929 28.1417 7.6118 28.2466 7.6118C29.6552 7.6118 30.8391 8.1213 31.7981 9.14031C32.7722 10.1443 33.2592 11.3956 33.2592 12.8941C33.2592 14.093 33.0419 15.052 32.6073 15.7713C32.1728 16.4757 31.6333 17.0451 30.9889 17.4797C30.3445 17.9142 29.7002 18.2964 29.0558 18.6261C28.4114 18.9557 27.872 19.3229 27.4374 19.7275C27.0028 20.1321 26.7855 20.6716 26.7855 21.3459C26.7855 21.9603 27.0328 22.4323 27.5273 22.762C28.0368 23.0767 28.7861 23.2341 29.7751 23.2341C29.91 23.2341 30.0523 23.2341 30.2022 23.2341C30.352 23.2191 30.5019 23.2116 30.6517 23.2116C30.9664 23.2116 31.1238 23.3539 31.1238 23.6387C31.1238 24.4029 31.2587 25.0323 31.5284 25.5268C31.7981 26.0213 32.1503 26.2686 32.5849 26.2686C33.0644 26.2686 33.484 25.879 33.8436 25.0997C34.2033 24.3205 34.3831 23.3464 34.3831 22.1776C34.3831 21.6831 34.3606 21.2335 34.3157 20.8289C34.2707 20.4243 34.2258 20.0047 34.1808 19.5701L36.2713 18.9857C36.3162 19.4203 36.3612 19.8923 36.4061 20.4018C36.4511 20.9113 36.4736 21.5107 36.4736 22.2001C36.4736 23.9983 36.1064 25.4744 35.3721 26.6282C34.6528 27.7671 33.7238 28.3366 32.5849 28.3366C31.7906 28.3366 31.1013 28.0369 30.5169 27.4375C29.9324 26.838 29.5578 26.0588 29.393 25.0997C29.2881 25.0997 29.1907 25.0997 29.1008 25.0997C29.0258 25.0997 28.9584 25.0997 28.8985 25.0997C27.6547 25.0997 26.6432 24.7551 25.8639 24.0657C25.0847 23.3614 24.6951 22.4698 24.6951 21.3909C24.6951 20.4318 24.9123 19.66 25.3469 19.0756C25.7815 18.4912 26.321 18.0042 26.9653 17.6145C27.6097 17.2099 28.2541 16.8203 28.8985 16.4457C29.5428 16.0561 30.0823 15.5915 30.5169 15.052C30.9515 14.4976 31.1687 13.7783 31.1687 12.8941C31.1687 11.995 30.869 11.2458 30.2696 10.6463C29.6702 10.0319 28.9284 9.72474 28.0443 9.72474C27.9094 9.72474 27.7746 9.73223 27.6397 9.74722C27.5198 9.74722 27.4074 9.7622 27.3025 9.79217C26.808 9.91206 26.5008 9.85211 26.3809 9.61235C26.1861 9.19276 25.8789 8.85559 25.4593 8.60083C25.0397 8.34608 24.5752 8.21871 24.0657 8.21871C23.1965 8.21871 22.4772 8.50343 21.9078 9.07287C21.3383 9.62733 21.0311 10.3316 20.9862 11.1858C20.9712 11.5005 20.8738 11.7553 20.694 11.9501C20.5141 12.1299 20.2669 12.2198 19.9522 12.2198C19.6525 12.2198 19.4052 12.1149 19.2104 11.9051C19.0156 11.6953 18.9257 11.4331 18.9407 11.1184ZM30.4944 20.7165C30.4944 20.4468 30.5993 20.207 30.8091 19.9972C31.0189 19.7874 31.2661 19.69 31.5509 19.705C32.6748 19.7949 33.5814 19.5551 34.2707 18.9857C34.96 18.4163 35.3047 17.622 35.3047 16.603C35.3047 15.599 34.9975 14.8123 34.3831 14.2428C33.7687 13.6734 32.9595 13.4186 31.9555 13.4786L32.2477 11.3881C33.7762 11.508 35.0125 12.055 35.9566 13.029C36.9007 13.9881 37.3727 15.1794 37.3727 16.603C37.3727 18.2514 36.8257 19.5551 35.7318 20.5142C34.6528 21.4733 33.2442 21.8929 31.5059 21.773C31.2062 21.743 30.9589 21.6381 30.7641 21.4583C30.5843 21.2635 30.4944 21.0162 30.4944 20.7165ZM25.7965 21.7505L26.4708 23.7286C26.0063 23.8784 25.5267 23.9983 25.0322 24.0882C24.5377 24.1632 24.0507 24.2006 23.5712 24.2006C22.4473 24.2006 21.4133 23.9908 20.4692 23.5712C19.5251 23.1516 18.7758 22.5747 18.2214 21.8404L19.9971 20.4468C20.2219 20.9413 20.6865 21.3459 21.3908 21.6606C22.1101 21.9753 22.8968 22.1326 23.751 22.1326C24.0956 22.1326 24.4478 22.1027 24.8074 22.0427C25.1671 21.9828 25.4968 21.8854 25.7965 21.7505ZM22.1775 14.9621C23.0916 14.8722 23.7585 14.625 24.1781 14.2204C24.5977 13.8157 24.8074 13.1939 24.8074 12.3547C24.7925 12.0699 24.8824 11.8302 25.0772 11.6354C25.272 11.4256 25.5118 11.3207 25.7965 11.3207C26.0812 11.3207 26.3285 11.4256 26.5383 11.6354C26.7481 11.8452 26.853 12.0849 26.853 12.3547C26.853 13.6584 26.5083 14.6999 25.819 15.4791C25.1446 16.2584 24.1556 16.7529 22.8519 16.9627L22.1775 14.9621Z" fill="url(#paint0_radial_238_8)"/>
<defs>
<radialGradient id="paint0_radial_238_8" cx="0" cy="0" r="1" gradientUnits="userSpaceOnUse" gradientTransform="translate(77.7504 -76.4033) rotate(131.66) scale(199.982 201.146)">
<stop stop-color="#4A4A4A"/>
<stop offset="0.515625" stop-color="#8456D0"/>
<stop offset="1" stop-color="#4A4A4A"/>
</radialGradient>
</defs>
</svg>
