<svg width="44" height="41" viewBox="0 0 44 41" fill="none" xmlns="http://www.w3.org/2000/svg">
<path d="M10.4215 40.33C8.26359 40.33 6.6152 39.7755 5.47631 38.6666C4.35241 37.5727 3.79045 35.9543 3.79045 33.8114V11.2209H7.61173V33.8563C7.61173 34.7854 7.85898 35.4897 8.3535 35.9693C8.863 36.4638 9.57481 36.711 10.4889 36.711H33.6413C34.5554 36.711 35.2598 36.4638 35.7543 35.9693C36.2638 35.4897 36.5185 34.7854 36.5185 33.8563V11.2209H40.3173V33.8114C40.3173 35.9393 39.7554 37.5577 38.6315 38.6666C37.5076 39.7755 35.8742 40.33 33.7312 40.33H10.4215ZM15.1419 21.6732C14.6623 21.6732 14.2652 21.5233 13.9505 21.2236C13.6508 20.9089 13.501 20.5043 13.501 20.0098V19.3355C13.501 18.841 13.6508 18.4439 13.9505 18.1441C14.2652 17.8444 14.6623 17.6946 15.1419 17.6946H29.0333C29.4979 17.6946 29.88 17.8444 30.1797 18.1441C30.4944 18.4439 30.6517 18.841 30.6517 19.3355V20.0098C30.6517 20.5043 30.4944 20.9089 30.1797 21.2236C29.88 21.5233 29.4979 21.6732 29.0333 21.6732H15.1419ZM4.95931 13.0641C3.58066 13.0641 2.5167 12.6595 1.76743 11.8503C1.01816 11.0261 0.643524 9.92466 0.643524 8.54601V5.39908C0.643524 4.02043 1.03314 2.92649 1.81238 2.11728C2.59162 1.30807 3.6406 0.903466 4.95931 0.903466H39.1934C40.5721 0.903466 41.6285 1.30807 42.3628 2.11728C43.1121 2.92649 43.4867 4.02043 43.4867 5.39908V8.54601C43.4867 9.92466 43.1121 11.0261 42.3628 11.8503C41.6285 12.6595 40.5721 13.0641 39.1934 13.0641H4.95931ZM5.81348 9.51257H38.3617C38.8562 9.51257 39.2159 9.39268 39.4407 9.15292C39.6655 8.91315 39.7778 8.54601 39.7778 8.05149V5.91608C39.7778 5.40657 39.6655 5.03194 39.4407 4.79217C39.2159 4.55241 38.8562 4.43252 38.3617 4.43252H5.81348C5.30398 4.43252 4.93684 4.55241 4.71205 4.79217C4.48727 5.03194 4.37488 5.40657 4.37488 5.91608V8.05149C4.37488 8.54601 4.48727 8.91315 4.71205 9.15292C4.93684 9.39268 5.30398 9.51257 5.81348 9.51257Z" fill="url(#paint0_radial_238_46)"/>
<defs>
<radialGradient id="paint0_radial_238_46" cx="0" cy="0" r="1" gradientUnits="userSpaceOnUse" gradientTransform="translate(77.7504 -81.4033) rotate(131.66) scale(199.982 201.146)">
<stop stop-color="#4A4A4A"/>
<stop offset="0.515625" stop-color="#8456D0"/>
<stop offset="1" stop-color="#4A4A4A"/>
</radialGradient>
</defs>
</svg>
