<svg width="48" height="45" viewBox="0 0 48 45" fill="none" xmlns="http://www.w3.org/2000/svg">
<path d="M26.1106 32.9791C24.7169 32.9791 23.4731 32.7768 22.3792 32.3722C21.3003 31.9526 20.4161 31.3982 19.7268 30.7088C19.0375 30.0045 18.6104 29.2328 18.4455 28.3936C18.3107 27.7642 18.3781 27.2397 18.6478 26.8201C18.9326 26.3856 19.3671 26.1683 19.9516 26.1683C20.2513 26.1683 20.5435 26.2657 20.8282 26.4605C21.1129 26.6403 21.3452 26.91 21.525 27.2697C21.8847 28.2288 22.4392 28.9406 23.1884 29.4051C23.9377 29.8697 24.9117 30.1019 26.1106 30.1019C27.4443 30.1019 28.5007 29.8397 29.28 29.3152C30.0592 28.7907 30.4488 28.0939 30.4488 27.2247C30.4488 26.4755 30.2091 25.891 29.7295 25.4714C29.25 25.0519 28.4258 24.7072 27.257 24.4375L24.2449 23.7406C22.2968 23.2911 20.8582 22.6167 19.9291 21.7176C19 20.8185 18.5355 19.6496 18.5355 18.211C18.5355 16.4727 19.2248 15.0566 20.6034 13.9627C21.9971 12.8538 23.7803 12.2993 25.9532 12.2993C27.3019 12.2993 28.4783 12.5241 29.4823 12.9736C30.4863 13.4082 31.2955 13.9777 31.9099 14.682C32.5393 15.3713 32.9514 16.0831 33.1462 16.8174C33.341 17.4468 33.2961 17.9863 33.0113 18.4358C32.7416 18.8854 32.3145 19.1102 31.7301 19.1102C31.4154 19.1102 31.1157 19.0277 30.831 18.8629C30.5612 18.6831 30.329 18.3983 30.1341 18.0087C29.7745 17.0497 29.25 16.3379 28.5607 15.8733C27.8714 15.3938 27.0022 15.154 25.9532 15.154C24.7544 15.154 23.7878 15.4238 23.0536 15.9632C22.3193 16.4877 21.9521 17.1845 21.9521 18.0537C21.9521 18.728 22.2144 19.2825 22.7389 19.7171C23.2633 20.1367 24.11 20.4813 25.2789 20.7511L28.3134 21.4704C30.3215 21.9499 31.7601 22.6167 32.6292 23.4709C33.5133 24.3101 33.9554 25.4714 33.9554 26.955C33.9554 28.1388 33.6182 29.1803 32.9439 30.0795C32.2845 30.9786 31.3555 31.6904 30.1566 32.2149C28.9728 32.7244 27.6241 32.9791 26.1106 32.9791ZM24.8743 34.9797V10.2313C24.8743 9.87167 24.9942 9.56447 25.2339 9.30972C25.4737 9.05496 25.7734 8.92759 26.133 8.92759C26.4777 8.92759 26.7774 9.05496 27.0322 9.30972C27.2869 9.56447 27.4143 9.87167 27.4143 10.2313V34.9797C27.4143 35.3393 27.2869 35.6465 27.0322 35.9013C26.7774 36.156 26.4777 36.2834 26.133 36.2834C25.7734 36.2834 25.4737 36.156 25.2339 35.9013C24.9942 35.6465 24.8743 35.3393 24.8743 34.9797ZM26.133 44.4429C23.7803 44.4429 21.5325 44.0683 19.3896 43.319C17.2467 42.5698 15.2612 41.5283 13.4329 40.1946C11.6197 38.8759 10.0537 37.3474 8.73502 35.6091C8.31543 35.0846 8.1431 34.5451 8.21802 33.9906C8.29295 33.4212 8.56269 32.9791 9.02724 32.6644C9.50677 32.3497 10.0088 32.2523 10.5333 32.3722C11.0578 32.4921 11.5073 32.7918 11.882 33.2713C12.9609 34.7249 14.2347 35.9912 15.7032 37.0701C17.1718 38.1341 18.7827 38.9583 20.536 39.5427C22.3043 40.1421 24.17 40.4418 26.133 40.4418C28.6056 40.4568 30.9209 39.9998 33.0788 39.0707C35.2367 38.1566 37.1323 36.8828 38.7657 35.2494C40.3991 33.601 41.6729 31.6979 42.587 29.54C43.5161 27.3821 43.9806 25.0668 43.9806 22.5943C43.9806 20.1217 43.5161 17.8064 42.587 15.6485C41.6729 13.4906 40.3991 11.6025 38.7657 9.98406C37.1323 8.35065 35.2367 7.07689 33.0788 6.16279C30.9209 5.23369 28.6056 4.76915 26.133 4.76915C23.6605 4.76915 21.3452 5.2262 19.1873 6.14031C17.0444 7.05442 15.1563 8.32068 13.5228 9.9391C11.8894 11.5575 10.6082 13.4457 9.6791 15.6036C8.75001 17.7615 8.28546 20.0692 8.28546 22.5268H4.30684C4.30684 19.5447 4.87628 16.7425 6.01517 14.12C7.15406 11.4826 8.72753 9.16735 10.7356 7.1743C12.7586 5.16626 15.0813 3.60029 17.7038 2.47638C20.3412 1.33749 23.151 0.768049 26.133 0.768049C29.1151 0.768049 31.9249 1.33749 34.5623 2.47638C37.1997 3.61527 39.5225 5.18874 41.5305 7.19678C43.5386 9.20482 45.112 11.5276 46.2509 14.165C47.3898 16.8024 47.9593 19.6122 47.9593 22.5943C47.9593 25.5913 47.3898 28.4086 46.2509 31.046C45.112 33.6685 43.5386 35.9837 41.5305 37.9917C39.5225 39.9998 37.1997 41.5732 34.5623 42.7121C31.9249 43.866 29.1151 44.4429 26.133 44.4429ZM1.72186 18.3684H11.837C12.3765 18.3684 12.7736 18.4808 13.0283 18.7055C13.2981 18.9303 13.4254 19.23 13.4105 19.6047C13.4105 19.9643 13.2681 20.3315 12.9834 20.7061L8.01572 27.6968C7.67106 28.1913 7.25896 28.4386 6.77943 28.4386C6.31488 28.4386 5.90278 28.1913 5.54313 27.6968L0.597959 20.7286C0.298251 20.324 0.140905 19.9418 0.125919 19.5822C0.125919 19.2225 0.253295 18.9303 0.508047 18.7055C0.777783 18.4808 1.18239 18.3684 1.72186 18.3684Z" fill="url(#paint0_radial_238_37)"/>
<defs>
<radialGradient id="paint0_radial_238_37" cx="0" cy="0" r="1" gradientUnits="userSpaceOnUse" gradientTransform="translate(81.8127 -79.4033) rotate(132.697) scale(203.288 205.204)">
<stop stop-color="#4A4A4A"/>
<stop offset="0.515625" stop-color="#8456D0"/>
<stop offset="1" stop-color="#4A4A4A"/>
</radialGradient>
</defs>
</svg>
