<svg width="52" height="47" viewBox="0 0 52 47" fill="none" xmlns="http://www.w3.org/2000/svg">
<path d="M31.4598 46.4095V42.6107H46.4527C46.8423 42.6107 47.1345 42.5133 47.3293 42.3185C47.5241 42.1237 47.6215 41.8315 47.6215 41.4418V16.3338C47.6215 15.9292 47.5241 15.6295 47.3293 15.4347C47.1345 15.2399 46.8423 15.1425 46.4527 15.1425H32.9658V11.3662H47.5991C48.7829 11.3662 49.712 11.7408 50.3863 12.4901C51.0757 13.2244 51.4203 14.2359 51.4203 15.5246V42.2511C51.4203 43.5248 51.0757 44.5363 50.3863 45.2856C49.712 46.0349 48.7829 46.4095 47.5991 46.4095H31.4598ZM39.6868 23.302C39.2222 23.302 38.99 23.0623 38.99 22.5827V19.2785C38.99 18.8139 39.2222 18.5816 39.6868 18.5816H43.081C43.5455 18.5816 43.7778 18.8139 43.7778 19.2785V22.5827C43.7778 23.0623 43.5455 23.302 43.081 23.302H39.6868ZM39.6868 31.2818C39.2222 31.2818 38.99 31.0495 38.99 30.5849V27.2807C38.99 26.8011 39.2222 26.5614 39.6868 26.5614H43.081C43.5455 26.5614 43.7778 26.8011 43.7778 27.2807V30.5849C43.7778 31.0495 43.5455 31.2818 43.081 31.2818H39.6868ZM39.6868 39.2615C39.2222 39.2615 38.99 39.0217 38.99 38.5422V35.2604C38.99 34.7808 39.2222 34.5411 39.6868 34.5411H43.081C43.5455 34.5411 43.7778 34.7808 43.7778 35.2604V38.5422C43.7778 39.0217 43.5455 39.2615 43.081 39.2615H39.6868ZM0.687322 42.2511V4.95994C0.687322 3.70116 1.02449 2.69714 1.69884 1.94787C2.38816 1.1986 3.32475 0.82397 4.50859 0.82397H31.3474C32.5163 0.82397 33.4379 1.1986 34.1122 1.94787C34.8015 2.69714 35.1462 3.70116 35.1462 4.95994V42.2511C35.1462 43.5248 34.8015 44.5363 34.1122 45.2856C33.4379 46.0349 32.5163 46.4095 31.3474 46.4095H4.50859C3.32475 46.4095 2.38816 46.0349 1.69884 45.2856C1.02449 44.5363 0.687322 43.5248 0.687322 42.2511ZM4.50859 41.4418C4.50859 41.8315 4.59851 42.1237 4.77833 42.3185C4.97314 42.5133 5.26536 42.6107 5.65498 42.6107H30.201C30.5757 42.6107 30.8604 42.5133 31.0552 42.3185C31.25 42.1237 31.3474 41.8315 31.3474 41.4418V5.76915C31.3474 5.39451 31.25 5.10979 31.0552 4.91498C30.8604 4.72017 30.5757 4.62276 30.201 4.62276H5.65498C5.26536 4.62276 4.97314 4.72017 4.77833 4.91498C4.59851 5.10979 4.50859 5.39451 4.50859 5.76915V41.4418ZM10.4203 44.4314V36.4068C10.4203 35.4926 10.6301 34.8183 11.0497 34.3837C11.4693 33.9342 12.1137 33.7094 12.9828 33.7094H22.8507C23.7199 33.7094 24.3642 33.9342 24.7838 34.3837C25.2184 34.8183 25.4357 35.4926 25.4357 36.4068V44.4314H22.4011V37.3508C22.4011 36.9013 22.1764 36.6765 21.7268 36.6765H14.1067C13.6572 36.6765 13.4324 36.9013 13.4324 37.3508V44.4314H10.4203ZM10.9148 13.8613C10.3604 13.8613 10.0832 13.5765 10.0832 13.0071V9.02847C10.0832 8.44404 10.3604 8.15182 10.9148 8.15182H15.0059C15.5753 8.15182 15.86 8.44404 15.86 9.02847V13.0071C15.86 13.5765 15.5753 13.8613 15.0059 13.8613H10.9148ZM20.8052 13.8613C20.2657 13.8613 19.996 13.5765 19.996 13.0071V9.02847C19.996 8.44404 20.2657 8.15182 20.8052 8.15182H24.8962C25.4806 8.15182 25.7728 8.44404 25.7728 9.02847V13.0071C25.7728 13.5765 25.4806 13.8613 24.8962 13.8613H20.8052ZM10.9148 22.1332C10.3604 22.1332 10.0832 21.8485 10.0832 21.279V17.3004C10.0832 16.731 10.3604 16.4462 10.9148 16.4462H15.0059C15.5753 16.4462 15.86 16.731 15.86 17.3004V21.279C15.86 21.8485 15.5753 22.1332 15.0059 22.1332H10.9148ZM20.8052 22.1332C20.2657 22.1332 19.996 21.8485 19.996 21.279V17.3004C19.996 16.731 20.2657 16.4462 20.8052 16.4462H24.8962C25.4806 16.4462 25.7728 16.731 25.7728 17.3004V21.279C25.7728 21.8485 25.4806 22.1332 24.8962 22.1332H20.8052ZM10.9148 30.4051C10.3604 30.4051 10.0832 30.1129 10.0832 29.5285V25.5723C10.0832 24.9879 10.3604 24.6957 10.9148 24.6957H15.0059C15.5753 24.6957 15.86 24.9879 15.86 25.5723V29.5285C15.86 30.1129 15.5753 30.4051 15.0059 30.4051H10.9148ZM20.8052 30.4051C20.2657 30.4051 19.996 30.1129 19.996 29.5285V25.5723C19.996 24.9879 20.2657 24.6957 20.8052 24.6957H24.8962C25.4806 24.6957 25.7728 24.9879 25.7728 25.5723V29.5285C25.7728 30.1129 25.4806 30.4051 24.8962 30.4051H20.8052Z" fill="url(#paint0_radial_238_12)"/>
<defs>
<radialGradient id="paint0_radial_238_12" cx="0" cy="0" r="1" gradientUnits="userSpaceOnUse" gradientTransform="translate(90 -78.4033) rotate(135.61) scale(213.58 216.242)">
<stop stop-color="#4A4A4A"/>
<stop offset="0.515625" stop-color="#8456D0"/>
<stop offset="1" stop-color="#4A4A4A"/>
</radialGradient>
</defs>
</svg>
