<svg width="52" height="41" viewBox="0 0 52 41" fill="none" xmlns="http://www.w3.org/2000/svg">
<path d="M0.642366 29.608V23.2691C0.642366 22.0553 0.7098 20.9764 0.844669 20.0323C0.994522 19.0882 1.26426 18.2191 1.65388 17.4248C2.0435 16.6156 2.60545 15.8064 3.33973 14.9972L5.47515 12.637L7.72296 6.27572C8.36733 4.47748 9.26645 3.16626 10.4203 2.34206C11.5742 1.50288 12.9004 0.993378 14.3989 0.813554C14.8935 0.768598 15.7027 0.723641 16.8266 0.678685C17.9505 0.618744 19.3067 0.573788 20.8951 0.543817C22.4836 0.513846 24.1994 0.498861 26.0426 0.498861C27.9158 0.498861 29.6391 0.513846 31.2125 0.543817C32.801 0.573788 34.1572 0.618744 35.2811 0.678685C36.42 0.723641 37.2367 0.768598 37.7312 0.813554C39.2297 0.993378 40.5559 1.50288 41.7098 2.34206C42.8637 3.16626 43.7628 4.47748 44.4072 6.27572L46.6325 12.637L48.7904 14.9972C49.5247 15.8064 50.0866 16.6156 50.4762 17.4248C50.8659 18.2191 51.1281 19.0882 51.263 20.0323C51.4128 20.9764 51.4878 22.0553 51.4878 23.2691V29.608C51.4878 31.0466 51.0757 32.2304 50.2515 33.1595C49.4423 34.0886 48.2734 34.5531 46.7449 34.5531H5.36276C3.83425 34.5531 2.66539 34.0886 1.85618 33.1595C1.04697 32.2304 0.642366 31.0466 0.642366 29.608ZM3.72186 28.6189C3.72186 29.4581 3.91667 30.1399 4.30629 30.6644C4.69591 31.1889 5.34778 31.4512 6.26188 31.4512H45.8682C46.7824 31.4512 47.4342 31.1889 47.8238 30.6644C48.2135 30.1399 48.4083 29.4581 48.4083 28.6189V23.1792C48.4083 21.7257 48.2659 20.5493 47.9812 19.6502C47.7114 18.7511 47.157 17.822 46.3178 16.8629L43.7553 13.9183L41.6424 7.69184C41.1928 6.37313 40.6009 5.45153 39.8666 4.92704C39.1323 4.38757 38.2781 4.05789 37.3041 3.93801C36.8396 3.89305 36.0753 3.8406 35.0113 3.78066C33.9624 3.72072 32.6736 3.67576 31.1451 3.64579C29.6316 3.60083 27.9307 3.57836 26.0426 3.57836C24.1844 3.57836 22.4911 3.60083 20.9625 3.64579C19.449 3.67576 18.1603 3.72072 17.0963 3.78066C16.0473 3.8406 15.2906 3.89305 14.826 3.93801C13.852 4.05789 12.9978 4.38757 12.2635 4.92704C11.5292 5.45153 10.9298 6.37313 10.4653 7.69184L8.37482 13.9183L5.78984 16.8629C4.95066 17.822 4.3962 18.7511 4.12647 19.6502C3.85673 20.5493 3.72186 21.7257 3.72186 23.1792V28.6189ZM12.4883 13.5811C11.9788 13.5811 11.6341 13.4238 11.4543 13.1091C11.2745 12.7944 11.2595 12.4047 11.4094 11.9402L12.6681 8.23132C12.9079 7.54199 13.2301 7.05496 13.6347 6.77024C14.0393 6.48552 14.5563 6.29071 15.1857 6.18581C15.875 6.0959 17.1488 6.02097 19.0069 5.96103C20.8651 5.90109 23.2103 5.87112 26.0426 5.87112C28.9048 5.87112 31.265 5.90109 33.1232 5.96103C34.9814 6.02097 36.2476 6.0959 36.922 6.18581C37.5514 6.29071 38.0684 6.48552 38.473 6.77024C38.8925 7.05496 39.2147 7.54199 39.4395 8.23132L40.7208 11.9402C40.8556 12.4047 40.8332 12.7944 40.6533 13.1091C40.4735 13.4238 40.1288 13.5811 39.6193 13.5811H12.4883ZM9.72351 25.9216C9.09412 25.9216 8.56963 25.7193 8.15004 25.3147C7.74544 24.91 7.54313 24.393 7.54313 23.7637V20.6392C7.54313 20.0248 7.74544 19.5153 8.15004 19.1107C8.56963 18.6911 9.09412 18.4813 9.72351 18.4813C10.3529 18.4813 10.8699 18.6836 11.2745 19.0882C11.6941 19.4928 11.9039 20.0098 11.9039 20.6392V23.7637C11.9039 24.393 11.6941 24.91 11.2745 25.3147C10.8699 25.7193 10.3529 25.9216 9.72351 25.9216ZM21.5245 24.9775C21.03 24.9775 20.6254 24.8201 20.3107 24.5054C19.996 24.1758 19.8386 23.7412 19.8386 23.2017V21.1787C19.8386 20.6392 19.996 20.2196 20.3107 19.9199C20.6254 19.6052 21.03 19.4479 21.5245 19.4479H30.5382C31.0477 19.4479 31.4523 19.6052 31.752 19.9199C32.0667 20.2196 32.2241 20.6392 32.2241 21.1787V23.2017C32.2241 23.7412 32.0667 24.1758 31.752 24.5054C31.4523 24.8201 31.0477 24.9775 30.5382 24.9775H21.5245ZM42.5864 25.9216C41.987 25.9216 41.47 25.7193 41.0355 25.3147C40.6159 24.8951 40.4061 24.3781 40.4061 23.7637V20.6392C40.4061 20.0248 40.6159 19.5153 41.0355 19.1107C41.47 18.6911 41.987 18.4813 42.5864 18.4813C43.2158 18.4813 43.7403 18.6836 44.1599 19.0882C44.5795 19.4928 44.7893 20.0098 44.7893 20.6392V23.7637C44.7893 24.393 44.5795 24.91 44.1599 25.3147C43.7403 25.7193 43.2158 25.9216 42.5864 25.9216ZM4.57603 40.4199C3.7818 40.4199 3.10746 40.1502 2.553 39.6107C2.01353 39.0712 1.74379 38.3969 1.74379 37.5877V31.7659L9.97077 33.1145V37.5877C9.97077 38.3969 9.69354 39.0712 9.13908 39.6107C8.58462 40.1502 7.91028 40.4199 7.11605 40.4199H4.57603ZM45.0141 40.4199C44.2049 40.4199 43.523 40.1502 42.9686 39.6107C42.4291 39.0712 42.1594 38.3969 42.1594 37.5877V33.1145L50.3863 31.7659V37.5877C50.3863 38.3969 50.1091 39.0712 49.5546 39.6107C49.0152 40.1502 48.3408 40.4199 47.5316 40.4199H45.0141Z" fill="url(#paint0_radial_238_33)"/>
<defs>
<radialGradient id="paint0_radial_238_33" cx="0" cy="0" r="1" gradientUnits="userSpaceOnUse" gradientTransform="translate(90 -81.4033) rotate(135.61) scale(213.58 216.242)">
<stop stop-color="#4A4A4A"/>
<stop offset="0.515625" stop-color="#8456D0"/>
<stop offset="1" stop-color="#4A4A4A"/>
</radialGradient>
</defs>
</svg>
