<svg width="43" height="43" viewBox="0 0 43 43" fill="none" xmlns="http://www.w3.org/2000/svg">
<path d="M15.8107 34.5416C14.492 34.5416 13.4879 34.1895 12.7986 33.4852C12.1093 32.7808 11.7646 31.7618 11.7646 30.4281V12.7379C11.7646 11.4192 12.1093 10.4077 12.7986 9.70336C13.4879 8.98406 14.492 8.62441 15.8107 8.62441H21.4077C22.157 8.62441 22.7714 8.72181 23.2509 8.91662C23.7454 9.09645 24.225 9.41863 24.6895 9.88318L31.0958 16.4243C31.5903 16.9188 31.92 17.4058 32.0848 17.8854C32.2496 18.3499 32.3321 19.0018 32.3321 19.841V30.4281C32.3321 31.7618 31.9874 32.7808 31.2981 33.4852C30.6087 34.1895 29.5972 34.5416 28.2635 34.5416H15.8107ZM15.9006 31.7768H28.1511C29.0952 31.7768 29.5673 31.3198 29.5673 30.4057V20.358H23.3633C22.4942 20.358 21.8273 20.1332 21.3628 19.6836C20.9132 19.2341 20.6884 18.5897 20.6884 17.7505V11.4117H15.9231C14.979 11.4117 14.507 11.8687 14.507 12.7829V30.4057C14.507 31.3198 14.9715 31.7768 15.9006 31.7768ZM23.7005 17.728H28.6007L23.3408 12.4007V17.3909C23.3408 17.5107 23.3708 17.6007 23.4307 17.6606C23.4907 17.7055 23.5806 17.728 23.7005 17.728ZM2.52614 14.5586C1.25238 14.5586 0.615503 13.9142 0.615503 12.6255V7.43307C0.615503 5.20025 1.19244 3.51439 2.34631 2.37551C3.50019 1.23662 5.20103 0.667172 7.44884 0.667172H12.6188C13.9225 0.667172 14.5744 1.31154 14.5744 2.60029C14.5744 3.87404 13.9225 4.51092 12.6188 4.51092H7.60618C6.58718 4.51092 5.80794 4.78066 5.26846 5.32013C4.72899 5.84462 4.45925 6.64634 4.45925 7.72529V12.6255C4.45925 13.9142 3.81488 14.5586 2.52614 14.5586ZM40.604 14.5586C39.3302 14.5586 38.6934 13.9142 38.6934 12.6255V7.72529C38.6934 6.64634 38.4161 5.84462 37.8617 5.32013C37.3072 4.78066 36.528 4.51092 35.5239 4.51092H30.4889C29.2151 4.51092 28.5782 3.87404 28.5782 2.60029C28.5782 1.31154 29.2151 0.667172 30.4889 0.667172H35.6813C37.9441 0.667172 39.6449 1.23662 40.7838 2.37551C41.9377 3.51439 42.5146 5.20025 42.5146 7.43307V12.6255C42.5146 13.9142 41.8777 14.5586 40.604 14.5586ZM7.44884 42.5663C5.20103 42.5663 3.50019 41.9969 2.34631 40.858C1.19244 39.7341 0.615503 38.0482 0.615503 35.8004V30.6304C0.615503 29.3417 1.25238 28.6973 2.52614 28.6973C3.81488 28.6973 4.45925 29.3417 4.45925 30.6304V35.5307C4.45925 36.6096 4.72899 37.4113 5.26846 37.9358C5.80794 38.4753 6.58718 38.745 7.60618 38.745H12.6188C13.9225 38.745 14.5744 39.3819 14.5744 40.6557C14.5744 41.9294 13.9225 42.5663 12.6188 42.5663H7.44884ZM30.4889 42.5663C29.2151 42.5663 28.5782 41.9294 28.5782 40.6557C28.5782 39.3819 29.2151 38.745 30.4889 38.745H35.5239C36.528 38.745 37.3072 38.4753 37.8617 37.9358C38.4161 37.4113 38.6934 36.6096 38.6934 35.5307V30.6304C38.6934 29.3417 39.3302 28.6973 40.604 28.6973C41.8777 28.6973 42.5146 29.3417 42.5146 30.6304V35.8004C42.5146 38.0332 41.9377 39.7191 40.7838 40.858C39.6449 41.9969 37.9441 42.5663 35.6813 42.5663H30.4889Z" fill="url(#paint0_radial_238_41)"/>
<defs>
<radialGradient id="paint0_radial_238_41" cx="0" cy="0" r="1" gradientUnits="userSpaceOnUse" gradientTransform="translate(76.2191 -80.4033) rotate(131.129) scale(198.354 199.041)">
<stop stop-color="#4A4A4A"/>
<stop offset="0.515625" stop-color="#8456D0"/>
<stop offset="1" stop-color="#4A4A4A"/>
</radialGradient>
</defs>
</svg>
