<svg width="32" height="31" viewBox="0 0 32 31" fill="none" xmlns="http://www.w3.org/2000/svg">
<path d="M7.78306 12.8466C7.4466 12.8466 7.15745 12.7309 6.91563 12.4996C6.68431 12.2578 6.56865 11.9739 6.56865 11.6479C6.56865 11.3115 6.68431 11.0223 6.91563 10.7805C7.15745 10.5387 7.4466 10.4178 7.78306 10.4178C8.11952 10.4178 8.4034 10.5387 8.63472 10.7805C8.87655 11.0223 8.99746 11.3115 8.99746 11.6479C8.99746 11.9739 8.87655 12.2578 8.63472 12.4996C8.4034 12.7309 8.11952 12.8466 7.78306 12.8466ZM11.1424 9.0772C10.8059 9.0772 10.5168 8.95628 10.275 8.71445C10.0436 8.47262 9.92798 8.18348 9.92798 7.84702C9.92798 7.52108 10.0436 7.24245 10.275 7.01113C10.5168 6.7693 10.8059 6.64839 11.1424 6.64839C11.4788 6.64839 11.7627 6.7693 11.994 7.01113C12.2359 7.24245 12.3568 7.52108 12.3568 7.84702C12.3568 8.18348 12.2359 8.47262 11.994 8.71445C11.7627 8.95628 11.4788 9.0772 11.1424 9.0772ZM15.9842 7.61045C15.6583 7.61045 15.3744 7.48953 15.1326 7.2477C14.9013 7.00587 14.7856 6.72199 14.7856 6.39604C14.7856 6.05958 14.9013 5.7757 15.1326 5.54438C15.3744 5.30255 15.6583 5.18164 15.9842 5.18164C16.3207 5.18164 16.6046 5.30255 16.8359 5.54438C17.0777 5.7757 17.1986 6.05958 17.1986 6.39604C17.1986 6.72199 17.0777 7.00587 16.8359 7.2477C16.6046 7.48953 16.3207 7.61045 15.9842 7.61045ZM20.8418 9.0772C20.5054 9.0772 20.2162 8.95628 19.9744 8.71445C19.7431 8.47262 19.6274 8.18348 19.6274 7.84702C19.6274 7.52108 19.7431 7.24245 19.9744 7.01113C20.2162 6.7693 20.5054 6.64839 20.8418 6.64839C21.1678 6.64839 21.4464 6.7693 21.6777 7.01113C21.9196 7.24245 22.0405 7.52108 22.0405 7.84702C22.0405 8.18348 21.9196 8.47262 21.6777 8.71445C21.4464 8.95628 21.1678 9.0772 20.8418 9.0772ZM24.1854 12.8466C23.8595 12.8466 23.5756 12.7309 23.3337 12.4996C23.1024 12.2578 22.9868 11.9739 22.9868 11.6479C22.9868 11.3115 23.1024 11.0223 23.3337 10.7805C23.5756 10.5387 23.8595 10.4178 24.1854 10.4178C24.5324 10.4178 24.8215 10.5387 25.0528 10.7805C25.2947 11.0223 25.4156 11.3115 25.4156 11.6479C25.4156 11.9739 25.2947 12.2578 25.0528 12.4996C24.8215 12.7309 24.5324 12.8466 24.1854 12.8466ZM16 24.5175C15.3797 24.5175 14.8907 24.344 14.5333 23.997C14.1863 23.65 13.8919 23.219 13.65 22.7038L10.2592 15.6539C10.091 15.2754 10.154 14.9915 10.4484 14.8022C10.5641 14.7286 10.7008 14.7024 10.8585 14.7234C11.0162 14.7339 11.1687 14.8022 11.3159 14.9284L17.2144 20.2119C17.6034 20.5694 17.8768 20.9058 18.0345 21.2212C18.1922 21.5262 18.2711 21.8784 18.2711 22.2779C18.2711 22.8983 18.0503 23.4292 17.6087 23.8708C17.1671 24.3019 16.6309 24.5175 16 24.5175ZM16 30.3372C13.9287 30.3372 11.9835 29.9429 10.1646 29.1543C8.34557 28.3657 6.74214 27.2775 5.35425 25.8896C3.96636 24.5017 2.87287 22.8983 2.07378 21.0793C1.2852 19.2498 0.890917 17.2994 0.890917 15.2281C0.890917 13.1673 1.2852 11.2274 2.07378 9.4084C2.86235 7.5789 3.95059 5.97021 5.33848 4.58232C6.73688 3.18392 8.34557 2.09043 10.1646 1.30185C11.9835 0.513279 13.9234 0.118992 15.9842 0.118992C18.0556 0.118992 20.0007 0.513279 21.8197 1.30185C23.6387 2.09043 25.2421 3.18392 26.63 4.58232C28.0284 5.97021 29.1219 7.5789 29.9105 9.4084C30.7095 11.2274 31.1091 13.1673 31.1091 15.2281C31.1091 17.2994 30.7148 19.2498 29.9262 21.0793C29.1376 22.8983 28.0442 24.5017 26.6458 25.8896C25.2579 27.2775 23.6544 28.3657 21.8355 29.1543C20.0165 29.9429 18.0713 30.3372 16 30.3372ZM16 28.0503C17.7769 28.0503 19.4382 27.7191 20.9838 27.0567C22.5399 26.3943 23.9015 25.4795 25.0686 24.3125C26.2462 23.1348 27.161 21.7732 27.8128 20.2276C28.4752 18.6715 28.8064 17.005 28.8064 15.2281C28.8064 13.4617 28.4752 11.8057 27.8128 10.2601C27.161 8.70394 26.2462 7.34233 25.0686 6.17524C23.9015 4.99764 22.5399 4.07763 20.9838 3.41523C19.4382 2.75283 17.7717 2.42163 15.9842 2.42163C14.2073 2.42163 12.546 2.75283 11.0004 3.41523C9.45483 4.07763 8.09849 4.99764 6.9314 6.17524C5.76431 7.34233 4.84956 8.70394 4.18716 10.2601C3.52476 11.8057 3.19355 13.4617 3.19355 15.2281C3.19355 17.005 3.52476 18.6715 4.18716 20.2276C4.84956 21.7732 5.76431 23.1348 6.9314 24.3125C8.09849 25.4795 9.45483 26.3943 11.0004 27.0567C12.5566 27.7191 14.2231 28.0503 16 28.0503Z" fill="black"/>
</svg>
