<svg width="38" height="38" viewBox="0 0 38 38" fill="none" xmlns="http://www.w3.org/2000/svg">
<g clip-path="url(#clip0_1_146)">
<path d="M19 34.3372C16.9287 34.3372 14.9835 33.9429 13.1646 33.1543C11.3456 32.3657 9.74214 31.2775 8.35425 29.8896C6.96636 28.5017 5.87287 26.8983 5.07378 25.0793C4.2852 23.2498 3.89092 21.2994 3.89092 19.2281C3.89092 17.1673 4.2852 15.2274 5.07378 13.4084C5.86235 11.5789 6.95059 9.97021 8.33848 8.58232C9.73688 7.18392 11.3456 6.09043 13.1646 5.30185C14.9835 4.51328 16.9234 4.11899 18.9842 4.11899C21.0556 4.11899 23.0007 4.51328 24.8197 5.30185C26.6387 6.09043 28.2421 7.18392 29.63 8.58232C31.0284 9.97021 32.1219 11.5789 32.9105 13.4084C33.7095 15.2274 34.1091 17.1673 34.1091 19.2281C34.1091 21.2994 33.7148 23.2498 32.9262 25.0793C32.1376 26.8983 31.0442 28.5017 29.6458 29.8896C28.2579 31.2775 26.6544 32.3657 24.8355 33.1543C23.0165 33.9429 21.0713 34.3372 19 34.3372ZM19 32.0503C20.7769 32.0503 22.4382 31.7191 23.9838 31.0567C25.5399 30.3943 26.9015 29.4795 28.0686 28.3125C29.2462 27.1348 30.161 25.7732 30.8128 24.2276C31.4752 22.6715 31.8064 21.005 31.8064 19.2281C31.8064 17.4617 31.4752 15.8057 30.8128 14.2601C30.161 12.7039 29.2462 11.3423 28.0686 10.1752C26.9015 8.99764 25.5399 8.07763 23.9838 7.41523C22.4382 6.75283 20.7717 6.42163 18.9842 6.42163C17.2073 6.42163 15.546 6.75283 14.0004 7.41523C12.4548 8.07763 11.0985 8.99764 9.9314 10.1752C8.76431 11.3423 7.84956 12.7039 7.18716 14.2601C6.52476 15.8057 6.19355 17.4617 6.19355 19.2281C6.19355 21.005 6.52476 22.6715 7.18716 24.2276C7.84956 25.7732 8.76431 27.1348 9.9314 28.3125C11.0985 29.4795 12.4548 30.3943 14.0004 31.0567C15.5566 31.7191 17.2231 32.0503 19 32.0503ZM19 27.6974C18.5584 27.6974 18.3376 27.4818 18.3376 27.0507V25.9467C17.3282 25.8521 16.445 25.5419 15.688 25.0162C14.9415 24.48 14.4631 23.7808 14.2528 22.9186C14.2423 22.845 14.2265 22.7714 14.2055 22.6978C14.195 22.6242 14.1897 22.5559 14.1897 22.4928C14.1897 22.2404 14.2633 22.0407 14.4105 21.8935C14.5577 21.7357 14.747 21.6569 14.9783 21.6569C15.1886 21.6569 15.362 21.7147 15.4987 21.8304C15.6459 21.946 15.7563 22.1248 15.8299 22.3666C15.9456 22.8923 16.2137 23.3392 16.6343 23.7072C17.0654 24.0752 17.6331 24.3012 18.3376 24.3854V19.8274L18.2114 19.8116C16.9813 19.5172 16.0507 19.0861 15.4199 18.5184C14.7995 17.9401 14.4894 17.1883 14.4894 16.263C14.4894 15.2537 14.8468 14.423 15.5618 13.7711C16.2873 13.1193 17.2126 12.7302 18.3376 12.6041V11.5789C18.3376 11.1373 18.5584 10.9165 19 10.9165C19.1893 10.9165 19.3417 10.9796 19.4574 11.1058C19.5835 11.2319 19.6466 11.3896 19.6466 11.5789V12.6041C20.6139 12.7197 21.4446 13.0404 22.1385 13.5661C22.843 14.0813 23.2898 14.7385 23.4791 15.5375C23.5001 15.6006 23.5159 15.6742 23.5264 15.7583C23.5369 15.8319 23.5422 15.9055 23.5422 15.9791C23.5422 16.221 23.4633 16.4208 23.3056 16.5785C23.1584 16.7257 22.9692 16.7993 22.7378 16.7993C22.3278 16.7993 22.0492 16.568 21.902 16.1053C21.7653 15.5901 21.4972 15.1695 21.0976 14.8436C20.7086 14.5071 20.2249 14.2916 19.6466 14.197V18.4868L19.899 18.5341C21.1817 18.7865 22.1438 19.2123 22.7852 19.8116C23.437 20.4109 23.763 21.2048 23.763 22.1931C23.763 23.2971 23.3687 24.1803 22.5801 24.8427C21.7916 25.4946 20.8137 25.8679 19.6466 25.9625V27.0507C19.6466 27.24 19.5835 27.3977 19.4574 27.5239C19.3417 27.6395 19.1893 27.6974 19 27.6974ZM18.3376 18.1556V14.197C17.6752 14.3021 17.1442 14.5387 16.7447 14.9067C16.3556 15.2642 16.1611 15.6847 16.1611 16.1684C16.1611 16.6416 16.3294 17.0358 16.6658 17.3513C17.0023 17.6667 17.5227 17.9243 18.2272 18.1241L18.3376 18.1556ZM19.6466 20.1744V24.3854C20.4457 24.3118 21.0503 24.0857 21.4604 23.7072C21.8704 23.3181 22.0754 22.845 22.0754 22.2877C22.0754 21.7936 21.9177 21.3835 21.6023 21.0576C21.2869 20.7211 20.7454 20.4477 19.9778 20.2375L19.6466 20.1744Z" fill="url(#paint0_radial_1_146)"/>
</g>
<line x1="3.70711" y1="4" x2="34" y2="34.2929" stroke="black" stroke-linecap="round"/>
<defs>
<radialGradient id="paint0_radial_1_146" cx="0" cy="0" r="1" gradientUnits="userSpaceOnUse" gradientTransform="translate(58.1859 -50.6782) rotate(132.182) scale(139.306 140.393)">
<stop stop-color="#474747"/>
<stop offset="0.526445"/>
<stop offset="1" stop-color="#080808"/>
<stop offset="1" stop-color="#4A4A4A"/>
</radialGradient>
<clipPath id="clip0_1_146">
<rect width="38" height="38" fill="white"/>
</clipPath>
</defs>
</svg>
