<svg width="36" height="26" viewBox="0 0 36 26" fill="none" xmlns="http://www.w3.org/2000/svg">
<path d="M5.03584 25.861C3.51126 25.861 2.3652 25.4825 1.59766 24.7255C0.840624 23.9685 0.462109 22.8434 0.462109 21.3504V12.6288C0.462109 12.2082 0.483137 11.8507 0.525195 11.5563C0.577766 11.2514 0.661881 10.978 0.777538 10.7362C0.893196 10.4838 1.05617 10.2262 1.26645 9.96338L6.59722 3.32358C7.14396 2.65067 7.63288 2.11969 8.06396 1.73066C8.49505 1.34163 8.97345 1.06826 9.49917 0.910545C10.0249 0.742316 10.7136 0.658201 11.5652 0.658201H24.4348C25.2864 0.658201 25.9699 0.742316 26.4851 0.910545C27.0108 1.06826 27.4892 1.34163 27.9203 1.73066C28.3514 2.11969 28.8455 2.65067 29.4028 3.32358L34.7335 9.96338C34.9333 10.2262 35.091 10.4838 35.2067 10.7362C35.3329 10.978 35.417 11.2514 35.459 11.5563C35.5011 11.8507 35.5221 12.2082 35.5221 12.6288V21.3504C35.5221 22.8434 35.1436 23.9685 34.3866 24.7255C33.6295 25.4825 32.4887 25.861 30.9642 25.861H5.03584ZM5.06738 23.6846H30.9326C31.7002 23.6846 32.2942 23.4795 32.7148 23.0695C33.1354 22.6489 33.3457 22.0338 33.3457 21.2242V13.7328H23.6304C23.5148 14.6685 23.1993 15.5044 22.6841 16.2404C22.1794 16.9659 21.5223 17.5442 20.7127 17.9753C19.9031 18.3959 18.9989 18.6062 18 18.6062C17.0011 18.6062 16.0969 18.3959 15.2873 17.9753C14.4777 17.5547 13.8153 16.9764 13.3001 16.2404C12.7849 15.5044 12.4695 14.6685 12.3538 13.7328H2.65435V21.2242C2.65435 22.0338 2.85937 22.6489 3.26943 23.0695C3.69001 23.4795 4.28932 23.6846 5.06738 23.6846ZM18 16.5874C18.715 16.5874 19.3353 16.4139 19.861 16.0669C20.3973 15.7095 20.8126 15.2521 21.107 14.6948C21.4014 14.127 21.5486 13.5435 21.5486 12.9442V12.8653C21.5486 12.5814 21.638 12.3291 21.8167 12.1083C21.9954 11.877 22.2688 11.7613 22.6368 11.7613H32.6675C32.8883 11.7613 33.0197 11.6825 33.0618 11.5248C33.1143 11.367 33.0881 11.2146 32.9829 11.0674L27.2736 3.85981C26.9056 3.4077 26.5061 3.08175 26.075 2.88198C25.6439 2.68221 25.155 2.58232 24.6083 2.58232H11.3917C10.8345 2.58232 10.3403 2.68221 9.90923 2.88198C9.47814 3.08175 9.0786 3.4077 8.7106 3.85981L3.01709 11.0674C2.90143 11.2146 2.86989 11.367 2.92246 11.5248C2.97503 11.6825 3.11698 11.7613 3.34829 11.7613H13.379C13.7259 11.7613 13.9888 11.877 14.1675 12.1083C14.3463 12.3291 14.4356 12.5814 14.4356 12.8653V12.9442C14.4356 13.5435 14.5828 14.127 14.8772 14.6948C15.1716 15.2521 15.587 15.7095 16.1232 16.0669C16.6594 16.4139 17.285 16.5874 18 16.5874ZM24.3244 4.83764C24.5136 4.83764 24.6713 4.90599 24.7975 5.04267C24.9237 5.16885 24.9868 5.32656 24.9868 5.51582C24.9868 5.70508 24.9237 5.86279 24.7975 5.98896C24.6713 6.11514 24.5136 6.17822 24.3244 6.17822H11.6599C11.4706 6.17822 11.3129 6.11514 11.1867 5.98896C11.0605 5.86279 10.9975 5.70508 10.9975 5.51582C10.9975 5.32656 11.0605 5.16885 11.1867 5.04267C11.3129 4.90599 11.4706 4.83764 11.6599 4.83764H24.3244ZM26.3904 8.27583C26.5797 8.27583 26.7374 8.34943 26.8636 8.49663C27.0003 8.63332 27.0686 8.79629 27.0686 8.98555C27.0686 9.1748 27.0003 9.33778 26.8636 9.47446C26.7374 9.61115 26.5797 9.67949 26.3904 9.67949H9.60957C9.4098 9.67949 9.24157 9.61115 9.10488 9.47446C8.9682 9.33778 8.89985 9.1748 8.89985 8.98555C8.89985 8.79629 8.9682 8.63332 9.10488 8.49663C9.24157 8.34943 9.4098 8.27583 9.60957 8.27583H26.3904Z" fill="url(#paint0_radial_238_14)"/>
<defs>
<radialGradient id="paint0_radial_238_14" cx="0" cy="0" r="1" gradientUnits="userSpaceOnUse" gradientTransform="translate(57.1859 -56.6782) rotate(132.182) scale(139.306 140.393)">
<stop stop-color="#474747"/>
<stop offset="0.526445"/>
<stop offset="1" stop-color="#080808"/>
<stop offset="1" stop-color="#4A4A4A"/>
</radialGradient>
</defs>
</svg>
