<svg width="34" height="31" viewBox="0 0 34 31" fill="none" xmlns="http://www.w3.org/2000/svg">
<path d="M18.2144 6.33296C18.6034 6.33296 18.9346 6.46964 19.208 6.74302C19.4814 7.01639 19.6181 7.34759 19.6181 7.73662V18.477L17.9621 13.3828L23.1509 20.4011C23.4137 20.7691 23.5294 21.1476 23.4979 21.5367C23.4663 21.9152 23.2876 22.2201 22.9616 22.4514C22.5936 22.6932 22.2204 22.7826 21.8418 22.7195C21.4633 22.6459 21.1216 22.4146 20.8167 22.0256L17.205 17.2626C16.9422 16.9051 16.8107 16.5424 16.8107 16.1744V7.73662C16.8107 7.34759 16.9474 7.01639 17.2208 6.74302C17.4942 6.46964 17.8254 6.33296 18.2144 6.33296ZM18.4352 30.3372C16.7424 30.3372 15.1337 30.0638 13.6091 29.517C12.0951 28.9703 10.6967 28.208 9.41392 27.2302C8.14168 26.2629 7.03242 25.1378 6.08613 23.8551C5.86533 23.5607 5.78122 23.2505 5.83379 22.9246C5.89687 22.5881 6.0651 22.341 6.33848 22.1833C6.61185 22.0151 6.89574 21.9678 7.19014 22.0414C7.49505 22.115 7.7474 22.2937 7.94717 22.5776C8.71471 23.6816 9.63472 24.6437 10.7072 25.4638C11.7902 26.2734 12.9835 26.9042 14.2873 27.3563C15.6016 27.819 16.9842 28.0503 18.4352 28.0503C20.2121 28.0608 21.8734 27.7349 23.419 27.0725C24.9751 26.4101 26.3367 25.4901 27.5038 24.3125C28.6709 23.1348 29.5856 21.7732 30.248 20.2276C30.9105 18.6715 31.2417 17.005 31.2417 15.2281C31.2417 13.4617 30.9105 11.8057 30.248 10.2601C29.5856 8.70394 28.6709 7.34233 27.5038 6.17524C26.3367 4.99764 24.9751 4.08289 23.419 3.431C21.8734 2.7686 20.2121 2.4374 18.4352 2.4374C16.6478 2.4374 14.9813 2.7686 13.4356 3.431C11.89 4.08289 10.5284 4.99238 9.35083 6.15947C8.18374 7.32656 7.26899 8.68817 6.60659 10.2443C5.94419 11.7899 5.61299 13.4459 5.61299 15.2123H3.32612C3.32612 13.1515 3.72041 11.2116 4.50898 9.39263C5.29756 7.56313 6.38579 5.95444 7.77368 4.56655C9.17209 3.17866 10.7808 2.09043 12.5998 1.30185C14.4187 0.513279 16.3639 0.118992 18.4352 0.118992C20.496 0.118992 22.4359 0.513279 24.2549 1.30185C26.0844 2.09043 27.6931 3.18392 29.081 4.58232C30.4688 5.97021 31.5571 7.5789 32.3457 9.4084C33.1342 11.2274 33.5285 13.1673 33.5285 15.2281C33.5285 17.2994 33.1342 19.2498 32.3457 21.0793C31.5571 22.8983 30.4688 24.5017 29.081 25.8896C27.6931 27.2775 26.0844 28.3657 24.2549 29.1543C22.4359 29.9429 20.496 30.3372 18.4352 30.3372ZM1.43354 12.405H8.19951C8.52546 12.405 8.77254 12.4733 8.94077 12.61C9.109 12.7467 9.18786 12.9254 9.17734 13.1462C9.17734 13.367 9.08797 13.6036 8.90923 13.856L5.59722 18.5559C5.37642 18.8818 5.11881 19.0448 4.82441 19.0448C4.53001 19.0448 4.2619 18.8818 4.02007 18.5559L0.739598 13.8717C0.550341 13.6089 0.450454 13.367 0.43994 13.1462C0.43994 12.9254 0.524055 12.7467 0.692284 12.61C0.860513 12.4733 1.1076 12.405 1.43354 12.405Z" fill="url(#paint0_radial_1_132)"/>
<defs>
<radialGradient id="paint0_radial_1_132" cx="0" cy="0" r="1" gradientUnits="userSpaceOnUse" gradientTransform="translate(56.1859 -54.6782) rotate(132.182) scale(139.306 140.393)">
<stop stop-color="#474747"/>
<stop offset="0.526445"/>
<stop offset="1" stop-color="#080808"/>
<stop offset="1" stop-color="#4A4A4A"/>
</radialGradient>
</defs>
</svg>
