<svg width="41" height="18" viewBox="0 0 41 18" fill="none" xmlns="http://www.w3.org/2000/svg">
<path d="M7.56455 2.45503C7.08673 3.02045 6.32222 3.46641 5.5577 3.4027C5.46214 2.63819 5.83643 1.8259 6.27443 1.32419C6.75225 0.74284 7.58844 0.32873 8.26535 0.296875C8.34499 1.09324 8.0344 1.87368 7.56455 2.45503ZM8.25738 3.55401C7.15044 3.4903 6.20276 4.18314 5.67716 4.18314C5.14359 4.18314 4.33927 3.58587 3.46326 3.60179C2.32446 3.61772 1.26529 4.26278 0.683947 5.29009C-0.510602 7.34471 0.373364 10.3868 1.52809 12.0592C2.09351 12.8874 2.77043 13.7953 3.66235 13.7634C4.5065 13.7316 4.84098 13.2139 5.86032 13.2139C6.88764 13.2139 7.18229 13.7634 8.07422 13.7475C8.998 13.7316 9.57935 12.9193 10.1448 12.0911C10.7898 11.1513 11.0526 10.2355 11.0686 10.1877C11.0526 10.1718 9.2847 9.4949 9.26877 7.4562C9.25284 5.75198 10.6624 4.93969 10.7261 4.89191C9.92975 3.71328 8.68742 3.58587 8.25738 3.55401ZM14.6522 1.24455V13.6599H16.5794V9.41526H19.2472C21.6841 9.41526 23.3963 7.7429 23.3963 5.32194C23.3963 2.90099 21.716 1.24455 19.3109 1.24455H14.6522ZM16.5794 2.86914H18.8013C20.4736 2.86914 21.4293 3.76107 21.4293 5.32991C21.4293 6.89875 20.4736 7.79864 18.7933 7.79864H16.5794V2.86914ZM26.9162 13.7555C28.1267 13.7555 29.2496 13.1423 29.7593 12.1707H29.7991V13.6599H31.5829V7.48009C31.5829 5.68827 30.1495 4.53354 27.9435 4.53354C25.8969 4.53354 24.3838 5.7042 24.328 7.31286H26.0641C26.2075 6.54835 26.9162 6.04664 27.8878 6.04664C29.0664 6.04664 29.7274 6.59613 29.7274 7.60751V8.29239L27.3224 8.43573C25.0846 8.57112 23.8741 9.48694 23.8741 11.0797C23.8741 12.6883 25.1244 13.7555 26.9162 13.7555ZM27.4339 12.2822C26.4066 12.2822 25.7535 11.7884 25.7535 11.0319C25.7535 10.2514 26.3827 9.79752 27.5852 9.72585L29.7274 9.59046V10.2913C29.7274 11.454 28.7399 12.2822 27.4339 12.2822ZM33.9641 17.0365C35.8435 17.0365 36.7275 16.3198 37.4999 14.1457L40.8845 4.653H38.9254L36.6558 11.9875H36.616L34.3463 4.653H32.3315L35.5966 13.6917L35.4214 14.2412C35.1268 15.173 34.6489 15.5314 33.7968 15.5314C33.6455 15.5314 33.3509 15.5154 33.2314 15.4995V16.9887C33.3429 17.0206 33.8207 17.0365 33.9641 17.0365Z" fill="black"/>
</svg>
