<svg width="16" height="16" viewBox="0 0 16 16" fill="none" xmlns="http://www.w3.org/2000/svg">
<rect width="16" height="16" rx="8.00001" fill="#8247E5"/>
<path d="M10.4443 6.2394C10.2672 6.13313 10.0369 6.13313 9.84208 6.2394L8.46053 7.05416L7.52179 7.58553L6.14024 8.40029C5.96311 8.50656 5.73286 8.50656 5.53802 8.40029L4.43987 7.76265C4.26274 7.65638 4.13876 7.46154 4.13876 7.249V5.99143C4.13876 5.77889 4.24503 5.58405 4.43987 5.47778L5.52031 4.85785C5.69743 4.75158 5.92769 4.75158 6.12252 4.85785L7.20297 5.47778C7.38009 5.58405 7.50407 5.77889 7.50407 5.99143V6.80619L8.44282 6.25712V5.44236C8.44282 5.22981 8.33655 5.03497 8.14171 4.9287L6.14024 3.7597C5.96311 3.65342 5.73286 3.65342 5.53802 3.7597L3.50112 4.9287C3.30629 5.03497 3.20001 5.22981 3.20001 5.44236V7.79808C3.20001 8.01062 3.30629 8.20546 3.50112 8.31173L5.53802 9.48073C5.71514 9.58701 5.9454 9.58701 6.14024 9.48073L7.52179 8.68368L8.46053 8.13461L9.84208 7.33756C10.0192 7.23129 10.2495 7.23129 10.4443 7.33756L11.5247 7.95749C11.7019 8.06376 11.8258 8.25859 11.8258 8.47114V9.7287C11.8258 9.94125 11.7196 10.1361 11.5247 10.2424L10.4443 10.88C10.2672 10.9863 10.0369 10.9863 9.84208 10.88L8.76164 10.2601C8.58452 10.1538 8.46053 9.95896 8.46053 9.74642V8.93166L7.52179 9.48073V10.2955C7.52179 10.508 7.62806 10.7029 7.82289 10.8091L9.8598 11.9782C10.0369 12.0844 10.2672 12.0844 10.462 11.9782L12.4989 10.8091C12.676 10.7029 12.8 10.508 12.8 10.2955V7.93977C12.8 7.72723 12.6937 7.53239 12.4989 7.42612L10.4443 6.2394Z" fill="white"/>
</svg>
