<svg width="21" height="15" viewBox="0 0 21 15" fill="none" xmlns="http://www.w3.org/2000/svg">
<path d="M10.3594 14.0391C9.36458 14.0391 8.42448 13.9193 7.53906 13.6797C6.65885 13.4401 5.84115 13.1224 5.08594 12.7266C4.33594 12.3307 3.66146 11.8958 3.0625 11.4219C2.46354 10.9479 1.95312 10.4714 1.53125 9.99219C1.10938 9.51302 0.786458 9.07031 0.5625 8.66406C0.338542 8.2526 0.226562 7.92188 0.226562 7.67188C0.226562 7.375 0.380208 6.97396 0.6875 6.46875C1 5.96354 1.44271 5.42188 2.01562 4.84375C2.59375 4.26562 3.29167 3.72135 4.10938 3.21094L5.13281 4.23438C4.42969 4.66146 3.82292 5.10938 3.3125 5.57812C2.80729 6.04167 2.41667 6.46615 2.14062 6.85156C1.86458 7.23177 1.72656 7.50521 1.72656 7.67188C1.72656 7.84375 1.82552 8.08854 2.02344 8.40625C2.22656 8.71875 2.51562 9.0651 2.89062 9.44531C3.27083 9.82552 3.72135 10.2083 4.24219 10.5938C4.76302 10.9792 5.34375 11.3333 5.98438 11.6562C6.63021 11.9792 7.32031 12.2396 8.05469 12.4375C8.78906 12.6354 9.55729 12.7344 10.3594 12.7344C10.8333 12.7344 11.2917 12.6979 11.7344 12.625C12.1823 12.5521 12.6146 12.4531 13.0312 12.3281L14.125 13.4062C13.5469 13.6042 12.9453 13.7578 12.3203 13.8672C11.6953 13.9818 11.0417 14.0391 10.3594 14.0391ZM10.3594 1.3125C11.3594 1.3125 12.3047 1.43229 13.1953 1.67188C14.0859 1.91146 14.9062 2.22656 15.6562 2.61719C16.4062 3.00781 17.0781 3.44271 17.6719 3.92188C18.2708 4.39583 18.7786 4.8724 19.1953 5.35156C19.612 5.83073 19.9297 6.27604 20.1484 6.6875C20.3724 7.09375 20.4844 7.42188 20.4844 7.67188C20.4844 7.96354 20.3359 8.35677 20.0391 8.85156C19.7474 9.34635 19.3255 9.8776 18.7734 10.4453C18.2214 11.0078 17.5573 11.5443 16.7812 12.0547L15.7734 11.0469C16.4297 10.6354 16.9974 10.2083 17.4766 9.76562C17.9609 9.31771 18.3307 8.90625 18.5859 8.53125C18.8464 8.15625 18.9766 7.86979 18.9766 7.67188C18.9766 7.52604 18.875 7.30469 18.6719 7.00781C18.474 6.70573 18.1875 6.36198 17.8125 5.97656C17.4375 5.59115 16.987 5.20312 16.4609 4.8125C15.9401 4.42188 15.3594 4.0599 14.7188 3.72656C14.0781 3.38802 13.388 3.11719 12.6484 2.91406C11.9141 2.71094 11.151 2.60938 10.3594 2.60938C9.92188 2.60938 9.5 2.64062 9.09375 2.70312C8.6875 2.76562 8.28906 2.85417 7.89844 2.96875L6.8125 1.89062C7.35938 1.70833 7.92448 1.56771 8.50781 1.46875C9.09635 1.36458 9.71354 1.3125 10.3594 1.3125ZM10.3594 11.7266C9.60417 11.7266 8.91927 11.5417 8.30469 11.1719C7.6901 10.8021 7.20052 10.3099 6.83594 9.69531C6.47135 9.08073 6.28906 8.40625 6.28906 7.67188C6.28906 7.35938 6.32031 7.0599 6.38281 6.77344C6.45052 6.48698 6.54948 6.21615 6.67969 5.96094L12.0547 11.3359C11.7943 11.4609 11.5234 11.5573 11.2422 11.625C10.9609 11.6927 10.6667 11.7266 10.3594 11.7266ZM14.0938 9.1875L8.83594 3.92969C9.07031 3.83073 9.3125 3.75521 9.5625 3.70312C9.81771 3.65104 10.0833 3.625 10.3594 3.625C11.1094 3.625 11.7917 3.80469 12.4062 4.16406C13.0208 4.52344 13.5104 5.01042 13.875 5.625C14.2396 6.23438 14.4219 6.91667 14.4219 7.67188C14.4219 7.94271 14.3932 8.20573 14.3359 8.46094C14.2786 8.71615 14.1979 8.95833 14.0938 9.1875ZM16.1484 14.1406L3.70312 1.70312C3.58854 1.59375 3.53125 1.45833 3.53125 1.29688C3.53125 1.13021 3.58854 0.994792 3.70312 0.890625C3.8125 0.770833 3.94792 0.710938 4.10938 0.710938C4.27083 0.710938 4.41146 0.770833 4.53125 0.890625L16.9688 13.3203C17.0833 13.4349 17.1406 13.5677 17.1406 13.7188C17.1458 13.875 17.0885 14.0156 16.9688 14.1406C16.849 14.2604 16.7109 14.3177 16.5547 14.3125C16.3984 14.3125 16.263 14.2552 16.1484 14.1406Z" fill="black"/>
</svg>
