<svg width="21" height="14" viewBox="0 0 21 14" fill="none" xmlns="http://www.w3.org/2000/svg">
<path d="M10.3594 13.0391C9.36458 13.0391 8.42448 12.9193 7.53906 12.6797C6.65885 12.4401 5.84115 12.1224 5.08594 11.7266C4.33594 11.3307 3.66146 10.8958 3.0625 10.4219C2.46354 9.94792 1.95312 9.47135 1.53125 8.99219C1.10938 8.51302 0.786458 8.07031 0.5625 7.66406C0.338542 7.2526 0.226562 6.92188 0.226562 6.67188C0.226562 6.42188 0.338542 6.09375 0.5625 5.6875C0.786458 5.27604 1.10938 4.83073 1.53125 4.35156C1.95833 3.8724 2.47135 3.39583 3.07031 2.92188C3.66927 2.44271 4.34375 2.00781 5.09375 1.61719C5.84896 1.22656 6.66667 0.911458 7.54688 0.671875C8.42708 0.432292 9.36458 0.3125 10.3594 0.3125C11.3594 0.3125 12.3021 0.432292 13.1875 0.671875C14.0781 0.911458 14.8984 1.22656 15.6484 1.61719C16.4036 2.00781 17.0781 2.44271 17.6719 2.92188C18.2656 3.39583 18.7708 3.8724 19.1875 4.35156C19.6094 4.83073 19.9297 5.27604 20.1484 5.6875C20.3724 6.09375 20.4844 6.42188 20.4844 6.67188C20.4844 6.92188 20.3724 7.2526 20.1484 7.66406C19.9297 8.07031 19.612 8.51302 19.1953 8.99219C18.7786 9.47135 18.2708 9.94792 17.6719 10.4219C17.0781 10.8958 16.4062 11.3307 15.6562 11.7266C14.9062 12.1224 14.0859 12.4401 13.1953 12.6797C12.3047 12.9193 11.3594 13.0391 10.3594 13.0391ZM10.3594 11.7344C11.151 11.7344 11.9141 11.6354 12.6484 11.4375C13.3828 11.2396 14.0703 10.9792 14.7109 10.6562C15.3516 10.3333 15.9323 9.97917 16.4531 9.59375C16.9792 9.20833 17.4297 8.82552 17.8047 8.44531C18.1797 8.0651 18.4688 7.71875 18.6719 7.40625C18.875 7.08854 18.9766 6.84375 18.9766 6.67188C18.9766 6.52604 18.875 6.30469 18.6719 6.00781C18.4688 5.70573 18.1797 5.36198 17.8047 4.97656C17.4297 4.59115 16.9792 4.20312 16.4531 3.8125C15.9323 3.42188 15.3516 3.0599 14.7109 2.72656C14.0703 2.38802 13.3828 2.11719 12.6484 1.91406C11.9141 1.71094 11.151 1.60938 10.3594 1.60938C9.55729 1.60938 8.78906 1.71094 8.05469 1.91406C7.32031 2.11719 6.63021 2.38802 5.98438 2.72656C5.34375 3.0599 4.76302 3.42188 4.24219 3.8125C3.72135 4.20312 3.27083 4.59115 2.89062 4.97656C2.51562 5.36198 2.22656 5.70573 2.02344 6.00781C1.82552 6.30469 1.72656 6.52604 1.72656 6.67188C1.72656 6.84375 1.82552 7.08854 2.02344 7.40625C2.22656 7.71875 2.51562 8.0651 2.89062 8.44531C3.27083 8.82552 3.72135 9.20833 4.24219 9.59375C4.76302 9.97917 5.34375 10.3333 5.98438 10.6562C6.63021 10.9792 7.32031 11.2396 8.05469 11.4375C8.78906 11.6354 9.55729 11.7344 10.3594 11.7344ZM10.3594 10.7266C9.79167 10.7266 9.26042 10.6198 8.76562 10.4062C8.27604 10.1927 7.84375 9.90104 7.46875 9.53125C7.09896 9.15625 6.8099 8.72396 6.60156 8.23438C6.39323 7.74479 6.28906 7.22396 6.28906 6.67188C6.28906 5.91667 6.46875 5.23438 6.82812 4.625C7.19271 4.01042 7.68229 3.52344 8.29688 3.16406C8.91667 2.80469 9.60417 2.625 10.3594 2.625C11.1094 2.625 11.7917 2.80469 12.4062 3.16406C13.0208 3.52344 13.5104 4.01042 13.875 4.625C14.2396 5.23438 14.4219 5.91667 14.4219 6.67188C14.4219 7.22396 14.3177 7.74479 14.1094 8.23438C13.901 8.72396 13.6094 9.15625 13.2344 9.53125C12.8646 9.90104 12.4323 10.1927 11.9375 10.4062C11.4479 10.6198 10.9219 10.7266 10.3594 10.7266ZM10.3594 7.99219C10.724 7.99219 11.0365 7.86458 11.2969 7.60938C11.5625 7.34896 11.6953 7.03646 11.6953 6.67188C11.6953 6.30729 11.5625 5.99479 11.2969 5.73438C11.0365 5.47396 10.724 5.34375 10.3594 5.34375C9.98438 5.34375 9.66667 5.47396 9.40625 5.73438C9.14583 5.99479 9.01562 6.30729 9.01562 6.67188C9.01562 7.03646 9.14583 7.34896 9.40625 7.60938C9.66667 7.86458 9.98438 7.99219 10.3594 7.99219Z" fill="black"/>
</svg>
