<svg width="14" height="12" viewBox="0 0 14 12" fill="none" xmlns="http://www.w3.org/2000/svg">
<path d="M13.6702 6.17713C13.6702 6.42062 13.5823 6.62804 13.4065 6.79938L8.96278 11.2295C8.78693 11.4054 8.59078 11.4933 8.37435 11.4933C8.12635 11.4933 7.9257 11.4167 7.77239 11.2634C7.61908 11.11 7.54243 10.9207 7.54243 10.6952C7.54243 10.569 7.56497 10.4562 7.61006 10.357C7.65966 10.2578 7.72279 10.1699 7.79944 10.0933L9.31449 8.56468L11.7156 6.37327L12.0267 6.88054L9.56474 7.02258H1.58369C1.32668 7.02258 1.11926 6.94592 0.961444 6.79262C0.803626 6.6348 0.724718 6.42964 0.724718 6.17713C0.724718 5.92913 0.803626 5.72848 0.961444 5.57517C1.11926 5.41735 1.32668 5.33844 1.58369 5.33844H9.56474L12.0267 5.47371L11.7156 5.99451L9.31449 3.78958L7.79944 2.261C7.72279 2.18435 7.65966 2.09642 7.61006 1.99722C7.56497 1.89352 7.54243 1.78079 7.54243 1.65904C7.54243 1.43359 7.61908 1.24421 7.77239 1.0909C7.9257 0.937594 8.12635 0.86094 8.37435 0.86094C8.47806 0.86094 8.57951 0.883485 8.67871 0.928576C8.78242 0.969157 8.88162 1.03679 8.97631 1.13148L13.4065 5.55488C13.5823 5.72622 13.6702 5.93364 13.6702 6.17713Z" fill="white"/>
</svg>
