<svg width="15" height="18" viewBox="0 0 15 18" fill="none" xmlns="http://www.w3.org/2000/svg">
<path d="M0.523438 14.5781V3.57031C0.523438 2.89323 0.705729 2.38281 1.07031 2.03906C1.4401 1.6901 1.92708 1.49479 2.53125 1.45312C3.41146 1.40104 4.2474 1.32812 5.03906 1.23438C5.83594 1.14062 6.59896 1.02865 7.32812 0.898438C8.05729 0.763021 8.76823 0.617188 9.46094 0.460938C10.1797 0.289062 10.737 0.372396 11.1328 0.710938C11.5339 1.04948 11.7344 1.59375 11.7344 2.34375V13.1562C11.7344 13.8073 11.6224 14.2969 11.3984 14.625C11.1745 14.9583 10.7917 15.2005 10.25 15.3516C9.32812 15.6068 8.45312 15.8125 7.625 15.9688C6.79688 16.125 5.98177 16.2422 5.17969 16.3203C4.38281 16.4036 3.57031 16.4661 2.74219 16.5078C2.03906 16.5547 1.49219 16.4089 1.10156 16.0703C0.716146 15.737 0.523438 15.2396 0.523438 14.5781ZM1.82031 14.3594C1.82031 14.6458 1.90625 14.862 2.07812 15.0078C2.25521 15.1589 2.4974 15.2266 2.80469 15.2109C3.61198 15.1745 4.39844 15.1172 5.16406 15.0391C5.9349 14.9609 6.69271 14.8542 7.4375 14.7188C8.18229 14.5833 8.92969 14.4115 9.67969 14.2031C9.95573 14.1302 10.151 14.013 10.2656 13.8516C10.3802 13.6849 10.4375 13.4375 10.4375 13.1094V2.58594C10.4375 2.26823 10.3464 2.03385 10.1641 1.88281C9.98698 1.72656 9.73698 1.6849 9.41406 1.75781C8.73698 1.91406 8.03906 2.05729 7.32031 2.1875C6.60677 2.31771 5.86458 2.42969 5.09375 2.52344C4.32812 2.61198 3.53385 2.67969 2.71094 2.72656C2.44531 2.73698 2.22917 2.8099 2.0625 2.94531C1.90104 3.07552 1.82031 3.28385 1.82031 3.57031V14.3594ZM3.42969 5.35938C3.30469 5.36458 3.20052 5.32812 3.11719 5.25C3.03385 5.16667 2.99219 5.0625 2.99219 4.9375C2.99219 4.82812 3.02865 4.73177 3.10156 4.64844C3.17448 4.5651 3.28385 4.51823 3.42969 4.50781C4.46094 4.4401 5.40365 4.33854 6.25781 4.20312C7.11198 4.0625 7.94271 3.90365 8.75 3.72656C8.91667 3.6901 9.04167 3.71354 9.125 3.79688C9.21354 3.88021 9.25781 3.97917 9.25781 4.09375C9.25781 4.20312 9.22917 4.29948 9.17188 4.38281C9.11979 4.46094 9.00781 4.52083 8.83594 4.5625C7.99219 4.74479 7.13802 4.90625 6.27344 5.04688C5.40885 5.18229 4.46094 5.28646 3.42969 5.35938ZM3.42969 7.6875C3.30469 7.69792 3.20052 7.66146 3.11719 7.57812C3.03385 7.49479 2.99219 7.39323 2.99219 7.27344C2.99219 7.15885 3.02865 7.0599 3.10156 6.97656C3.17448 6.89323 3.28385 6.84635 3.42969 6.83594C4.46094 6.77344 5.40365 6.67448 6.25781 6.53906C7.11198 6.39844 7.94271 6.23698 8.75 6.05469C8.91667 6.02344 9.04167 6.04948 9.125 6.13281C9.21354 6.21094 9.25781 6.3099 9.25781 6.42969C9.25781 6.53385 9.22917 6.6276 9.17188 6.71094C9.11979 6.79427 9.00781 6.85677 8.83594 6.89844C7.99219 7.08073 7.13802 7.24219 6.27344 7.38281C5.40885 7.51823 4.46094 7.61979 3.42969 7.6875ZM3.42969 10.0234C3.30469 10.0286 3.20052 9.99219 3.11719 9.91406C3.03385 9.83073 2.99219 9.72917 2.99219 9.60938C2.99219 9.49479 3.02865 9.39583 3.10156 9.3125C3.17448 9.22917 3.28385 9.18229 3.42969 9.17188C4.46094 9.10417 5.40365 9.0026 6.25781 8.86719C7.11198 8.73177 7.94271 8.57292 8.75 8.39062C8.91667 8.35417 9.04167 8.3776 9.125 8.46094C9.21354 8.54427 9.25781 8.64583 9.25781 8.76562C9.25781 8.86979 9.22917 8.96354 9.17188 9.04688C9.11979 9.13021 9.00781 9.1901 8.83594 9.22656C7.99219 9.40885 7.13802 9.57031 6.27344 9.71094C5.40885 9.85156 4.46094 9.95573 3.42969 10.0234ZM3.42969 12.3438C3.30469 12.3542 3.20052 12.3203 3.11719 12.2422C3.03385 12.1589 2.99219 12.0573 2.99219 11.9375C2.99219 11.8229 3.02865 11.724 3.10156 11.6406C3.17448 11.5573 3.28385 11.5104 3.42969 11.5C4.01823 11.4688 4.51823 11.4271 4.92969 11.375C5.34635 11.3229 5.72656 11.2708 6.07031 11.2188C6.24219 11.1875 6.36979 11.2161 6.45312 11.3047C6.54167 11.388 6.58594 11.487 6.58594 11.6016C6.58594 11.7005 6.55469 11.7943 6.49219 11.8828C6.42969 11.9661 6.33333 12.0182 6.20312 12.0391C5.8125 12.1016 5.40104 12.1615 4.96875 12.2188C4.54167 12.2708 4.02865 12.3125 3.42969 12.3438ZM6.53906 17.1875C7.15885 17.0885 7.80208 16.9714 8.46875 16.8359C9.14062 16.7005 9.82812 16.5365 10.5312 16.3438C11.0312 16.1979 11.4453 15.9896 11.7734 15.7188C12.1068 15.4531 12.3542 15.1094 12.5156 14.6875C12.6823 14.2708 12.7656 13.7604 12.7656 13.1562V2.36719C12.7656 2.2526 12.7604 2.13802 12.75 2.02344C12.7448 1.90885 12.7344 1.79167 12.7188 1.67188C13.1771 1.79167 13.5234 2.03646 13.7578 2.40625C13.9922 2.77083 14.1094 3.2526 14.1094 3.85156V14.8203C14.1094 15.6068 13.9115 16.1979 13.5156 16.5938C13.125 16.9896 12.5417 17.1875 11.7656 17.1875H6.53906Z" fill="#E5E5E5"/>
</svg>
