<svg width="16" height="15" viewBox="0 0 16 15" fill="none" xmlns="http://www.w3.org/2000/svg">
<path d="M2.60156 14.5234C1.82031 14.5234 1.22917 14.3281 0.828125 13.9375C0.427083 13.5469 0.226562 12.9609 0.226562 12.1797V3.17188C0.226562 2.39062 0.427083 1.80469 0.828125 1.41406C1.22917 1.01823 1.82031 0.820312 2.60156 0.820312H12.7344C13.526 0.820312 14.1198 1.01823 14.5156 1.41406C14.9115 1.8099 15.1094 2.39583 15.1094 3.17188V12.1797C15.1094 12.9557 14.9115 13.5391 14.5156 13.9297C14.1198 14.3255 13.526 14.5234 12.7344 14.5234H2.60156ZM2.53906 13.2031H12.7891C13.1068 13.2031 13.3516 13.1198 13.5234 12.9531C13.7005 12.7865 13.7891 12.5339 13.7891 12.1953V5.3125C13.7891 4.97917 13.7005 4.72917 13.5234 4.5625C13.3516 4.39583 13.1068 4.3125 12.7891 4.3125H2.53906C2.22135 4.3125 1.97917 4.39583 1.8125 4.5625C1.64583 4.72917 1.5625 4.97917 1.5625 5.3125V12.1953C1.5625 12.5339 1.64583 12.7865 1.8125 12.9531C1.97917 13.1198 2.22135 13.2031 2.53906 13.2031ZM6.24219 6.91406C6.11198 6.91406 6.01823 6.89062 5.96094 6.84375C5.90885 6.79688 5.88281 6.70833 5.88281 6.57812V6.14844C5.88281 6.01823 5.90885 5.92969 5.96094 5.88281C6.01823 5.83073 6.11198 5.80469 6.24219 5.80469H6.67188C6.80208 5.80469 6.89062 5.83073 6.9375 5.88281C6.98958 5.92969 7.01562 6.01823 7.01562 6.14844V6.57812C7.01562 6.70833 6.98958 6.79688 6.9375 6.84375C6.89062 6.89062 6.80208 6.91406 6.67188 6.91406H6.24219ZM8.67188 6.91406C8.54167 6.91406 8.45052 6.89062 8.39844 6.84375C8.35156 6.79688 8.32812 6.70833 8.32812 6.57812V6.14844C8.32812 6.01823 8.35156 5.92969 8.39844 5.88281C8.45052 5.83073 8.54167 5.80469 8.67188 5.80469H9.10938C9.23958 5.80469 9.33073 5.83073 9.38281 5.88281C9.4349 5.92969 9.46094 6.01823 9.46094 6.14844V6.57812C9.46094 6.70833 9.4349 6.79688 9.38281 6.84375C9.33073 6.89062 9.23958 6.91406 9.10938 6.91406H8.67188ZM11.1094 6.91406C10.974 6.91406 10.8802 6.89062 10.8281 6.84375C10.7812 6.79688 10.7578 6.70833 10.7578 6.57812V6.14844C10.7578 6.01823 10.7812 5.92969 10.8281 5.88281C10.8802 5.83073 10.974 5.80469 11.1094 5.80469H11.5469C11.6771 5.80469 11.7656 5.83073 11.8125 5.88281C11.8646 5.92969 11.8906 6.01823 11.8906 6.14844V6.57812C11.8906 6.70833 11.8646 6.79688 11.8125 6.84375C11.7656 6.89062 11.6771 6.91406 11.5469 6.91406H11.1094ZM3.80469 9.32031C3.66927 9.32031 3.57552 9.29688 3.52344 9.25C3.47656 9.19792 3.45312 9.10677 3.45312 8.97656V8.53906C3.45312 8.40885 3.47656 8.32031 3.52344 8.27344C3.57552 8.22656 3.66927 8.20312 3.80469 8.20312H4.23438C4.36979 8.20312 4.46094 8.22656 4.50781 8.27344C4.5599 8.32031 4.58594 8.40885 4.58594 8.53906V8.97656C4.58594 9.10677 4.5599 9.19792 4.50781 9.25C4.46094 9.29688 4.36979 9.32031 4.23438 9.32031H3.80469ZM6.24219 9.32031C6.11198 9.32031 6.01823 9.29688 5.96094 9.25C5.90885 9.19792 5.88281 9.10677 5.88281 8.97656V8.53906C5.88281 8.40885 5.90885 8.32031 5.96094 8.27344C6.01823 8.22656 6.11198 8.20312 6.24219 8.20312H6.67188C6.80208 8.20312 6.89062 8.22656 6.9375 8.27344C6.98958 8.32031 7.01562 8.40885 7.01562 8.53906V8.97656C7.01562 9.10677 6.98958 9.19792 6.9375 9.25C6.89062 9.29688 6.80208 9.32031 6.67188 9.32031H6.24219ZM8.67188 9.32031C8.54167 9.32031 8.45052 9.29688 8.39844 9.25C8.35156 9.19792 8.32812 9.10677 8.32812 8.97656V8.53906C8.32812 8.40885 8.35156 8.32031 8.39844 8.27344C8.45052 8.22656 8.54167 8.20312 8.67188 8.20312H9.10938C9.23958 8.20312 9.33073 8.22656 9.38281 8.27344C9.4349 8.32031 9.46094 8.40885 9.46094 8.53906V8.97656C9.46094 9.10677 9.4349 9.19792 9.38281 9.25C9.33073 9.29688 9.23958 9.32031 9.10938 9.32031H8.67188ZM11.1094 9.32031C10.974 9.32031 10.8802 9.29688 10.8281 9.25C10.7812 9.19792 10.7578 9.10677 10.7578 8.97656V8.53906C10.7578 8.40885 10.7812 8.32031 10.8281 8.27344C10.8802 8.22656 10.974 8.20312 11.1094 8.20312H11.5469C11.6771 8.20312 11.7656 8.22656 11.8125 8.27344C11.8646 8.32031 11.8906 8.40885 11.8906 8.53906V8.97656C11.8906 9.10677 11.8646 9.19792 11.8125 9.25C11.7656 9.29688 11.6771 9.32031 11.5469 9.32031H11.1094ZM3.80469 11.7109C3.66927 11.7109 3.57552 11.6875 3.52344 11.6406C3.47656 11.5938 3.45312 11.5052 3.45312 11.375V10.9453C3.45312 10.8099 3.47656 10.7188 3.52344 10.6719C3.57552 10.625 3.66927 10.6016 3.80469 10.6016H4.23438C4.36979 10.6016 4.46094 10.625 4.50781 10.6719C4.5599 10.7188 4.58594 10.8099 4.58594 10.9453V11.375C4.58594 11.5052 4.5599 11.5938 4.50781 11.6406C4.46094 11.6875 4.36979 11.7109 4.23438 11.7109H3.80469ZM6.24219 11.7109C6.11198 11.7109 6.01823 11.6875 5.96094 11.6406C5.90885 11.5938 5.88281 11.5052 5.88281 11.375V10.9453C5.88281 10.8099 5.90885 10.7188 5.96094 10.6719C6.01823 10.625 6.11198 10.6016 6.24219 10.6016H6.67188C6.80208 10.6016 6.89062 10.625 6.9375 10.6719C6.98958 10.7188 7.01562 10.8099 7.01562 10.9453V11.375C7.01562 11.5052 6.98958 11.5938 6.9375 11.6406C6.89062 11.6875 6.80208 11.7109 6.67188 11.7109H6.24219ZM8.67188 11.7109C8.54167 11.7109 8.45052 11.6875 8.39844 11.6406C8.35156 11.5938 8.32812 11.5052 8.32812 11.375V10.9453C8.32812 10.8099 8.35156 10.7188 8.39844 10.6719C8.45052 10.625 8.54167 10.6016 8.67188 10.6016H9.10938C9.23958 10.6016 9.33073 10.625 9.38281 10.6719C9.4349 10.7188 9.46094 10.8099 9.46094 10.9453V11.375C9.46094 11.5052 9.4349 11.5938 9.38281 11.6406C9.33073 11.6875 9.23958 11.7109 9.10938 11.7109H8.67188Z" fill="#E5E5E5"/>
</svg>
