<svg width="22" height="19" viewBox="0 0 22 19" fill="none" xmlns="http://www.w3.org/2000/svg">
<path d="M10.9844 10.2734C10.6667 10.2786 10.3411 10.2396 10.0078 10.1562C9.67448 10.0729 9.30729 9.9401 8.90625 9.75781L1.61719 6.42969C1.36719 6.3099 1.17708 6.14844 1.04688 5.94531C0.916667 5.73698 0.851562 5.51562 0.851562 5.28125C0.851562 5.04688 0.916667 4.82552 1.04688 4.61719C1.17708 4.40885 1.36719 4.2474 1.61719 4.13281L8.90625 0.804688C9.30729 0.622396 9.67448 0.489583 10.0078 0.40625C10.3411 0.317708 10.6667 0.276042 10.9844 0.28125C11.3073 0.276042 11.6328 0.317708 11.9609 0.40625C12.2943 0.489583 12.6615 0.622396 13.0625 0.804688L20.3516 4.13281C20.6068 4.2474 20.7969 4.40885 20.9219 4.61719C21.0521 4.82552 21.1172 5.04688 21.1172 5.28125C21.1172 5.51562 21.0521 5.73698 20.9219 5.94531C20.7969 6.14844 20.6068 6.3099 20.3516 6.42969L13.0625 9.75781C12.6615 9.9401 12.2943 10.0729 11.9609 10.1562C11.6328 10.2396 11.3073 10.2786 10.9844 10.2734ZM10.9844 8.96875C11.224 8.96875 11.4661 8.9375 11.7109 8.875C11.9609 8.8125 12.2422 8.70833 12.5547 8.5625L19.25 5.51562C19.375 5.45833 19.4375 5.38021 19.4375 5.28125C19.4375 5.18229 19.375 5.10417 19.25 5.04688L12.5547 2C12.2422 1.85417 11.9609 1.75 11.7109 1.6875C11.4661 1.61979 11.224 1.58594 10.9844 1.58594C10.7448 1.58594 10.5 1.61979 10.25 1.6875C10.0052 1.75 9.72396 1.85417 9.40625 2L2.71875 5.04688C2.59375 5.10417 2.53125 5.18229 2.53125 5.28125C2.53125 5.38021 2.59375 5.45833 2.71875 5.51562L9.40625 8.5625C9.72396 8.70833 10.0052 8.8125 10.25 8.875C10.5 8.9375 10.7448 8.96875 10.9844 8.96875ZM3.75 10.7969V6.92188H5.04688V10.7969C5.04688 11.1823 5.1875 11.5495 5.46875 11.8984C5.75 12.2474 6.14844 12.5599 6.66406 12.8359C7.1849 13.1068 7.8099 13.3203 8.53906 13.4766C9.26823 13.638 10.0833 13.7188 10.9844 13.7188C11.8854 13.7188 12.7005 13.638 13.4297 13.4766C14.1589 13.3203 14.7812 13.1068 15.2969 12.8359C15.8177 12.5599 16.2188 12.2474 16.5 11.8984C16.7812 11.5495 16.9219 11.1823 16.9219 10.7969V6.92188H18.2188V10.7969C18.2188 11.3698 18.0469 11.9089 17.7031 12.4141C17.3594 12.9141 16.8672 13.3542 16.2266 13.7344C15.5911 14.1146 14.8307 14.4115 13.9453 14.625C13.0599 14.8438 12.0729 14.9531 10.9844 14.9531C9.89583 14.9531 8.90625 14.8438 8.01562 14.625C7.13021 14.4115 6.36979 14.1146 5.73438 13.7344C5.09896 13.3542 4.60938 12.9141 4.26562 12.4141C3.92188 11.9089 3.75 11.3698 3.75 10.7969ZM11.0156 6.16406C10.7396 6.16406 10.4766 6.1276 10.2266 6.05469C9.98177 5.97656 9.78125 5.86979 9.625 5.73438C9.46875 5.59896 9.39062 5.44792 9.39062 5.28125C9.39062 5.11458 9.46875 4.96615 9.625 4.83594C9.78125 4.70052 9.98177 4.59635 10.2266 4.52344C10.4766 4.44531 10.7396 4.40625 11.0156 4.40625C11.2865 4.40625 11.5443 4.44531 11.7891 4.52344C12.0339 4.59635 12.2318 4.70052 12.3828 4.83594C12.5391 4.96615 12.6172 5.11458 12.6172 5.28125C12.6172 5.44792 12.5391 5.59896 12.3828 5.73438C12.2318 5.86979 12.0339 5.97656 11.7891 6.05469C11.5443 6.1276 11.2865 6.16406 11.0156 6.16406ZM6.60938 8.03906L5.58594 7.49219L10.4297 4.98438L10.8828 5.79688L6.60938 8.03906ZM5.58594 15.2734V7.53125L6.60938 8.03906V15.2734H5.58594ZM4.97656 15.4375C4.97656 15.1354 5.0651 14.8932 5.24219 14.7109C5.42448 14.5286 5.66667 14.4375 5.96875 14.4375H6.21875C6.52604 14.4375 6.76823 14.5286 6.94531 14.7109C7.1276 14.8932 7.21875 15.1354 7.21875 15.4375V17.4062C7.21875 17.7083 7.1276 17.9479 6.94531 18.125C6.76823 18.3073 6.52604 18.3984 6.21875 18.3984H5.96875C5.66667 18.3984 5.42448 18.3073 5.24219 18.125C5.0651 17.9479 4.97656 17.7083 4.97656 17.4062V15.4375Z" fill="#E5E5E5"/>
</svg>
