<svg width="35" height="18" viewBox="0 0 35 18" fill="none" xmlns="http://www.w3.org/2000/svg">
<path fill-rule="evenodd" clip-rule="evenodd" d="M4.99602 0.175781C2.23679 0.175781 0 2.41257 0 5.1718V12.0472C0 14.8064 2.23679 17.0432 4.99602 17.0432H29.731C32.4902 17.0432 34.727 14.8064 34.727 12.0472V5.1718C34.727 2.41257 32.4902 0.175781 29.731 0.175781H4.99602ZM8.87298 13.5703H3.49556C3.39728 13.5703 3.32708 13.5001 3.32708 13.4018V5.87626C3.32708 5.76394 3.35516 5.6797 3.4394 5.59546L5.18039 3.85447C5.26463 3.77023 5.34888 3.74215 5.4612 3.74215H9.53287C9.64519 3.74215 9.72943 3.77023 9.81367 3.85447L11.5547 5.59546C11.6389 5.6797 11.667 5.7499 11.667 5.87626V10.7903C11.667 10.9167 11.6249 10.9869 11.5406 11.0711L9.15378 13.458C9.06954 13.5422 8.9853 13.5703 8.87298 13.5703ZM4.68898 5.52526V12.2084H8.50793L10.3051 10.4113V5.52526C10.3051 5.25849 10.1506 5.10405 9.88387 5.10405H5.11019C4.84343 5.10405 4.68898 5.25849 4.68898 5.52526ZM21.1043 7.94018H20.0794C19.9811 7.94018 19.9109 7.86998 19.9109 7.77169V5.52526C19.9109 5.25849 19.7565 5.10405 19.4897 5.10405H16.6536L14.0421 7.74361C13.9719 7.81381 13.8596 7.81381 13.7894 7.74361L13.0873 7.05564C13.0171 6.98544 13.0171 6.87312 13.0873 6.80292L16.0358 3.85447C16.12 3.77023 16.2043 3.74215 16.3166 3.74215H19.1387C19.251 3.74215 19.3353 3.77023 19.4195 3.85447L21.1605 5.59546C21.2447 5.6797 21.2728 5.76394 21.2728 5.87626V7.77169C21.2728 7.86998 21.2026 7.94018 21.1043 7.94018ZM14.3369 13.5703H13.312C13.2137 13.5703 13.1435 13.5001 13.1435 13.4018V10.0743C13.1435 9.96197 13.1716 9.87773 13.2558 9.79349L14.9968 8.0525C15.0811 7.96826 15.1653 7.94018 15.2776 7.94018H19.1808C19.2931 7.94018 19.3774 7.96826 19.4616 8.0525L21.2026 9.79349C21.2868 9.87773 21.3149 9.96197 21.3149 10.0743V13.4018C21.3149 13.5001 21.2447 13.5703 21.1464 13.5703H20.1215C20.0232 13.5703 19.953 13.5001 19.953 13.4018V9.72329C19.953 9.45652 19.7986 9.30208 19.5318 9.30208H14.9266C14.6599 9.30208 14.5054 9.45652 14.5054 9.72329V13.4018C14.5054 13.5001 14.4352 13.5703 14.3369 13.5703ZM28.9571 13.458C28.8729 13.5422 28.7886 13.5703 28.6763 13.5703H25.0539C24.9416 13.5703 24.8573 13.5422 24.7731 13.458L23.0321 11.717C22.9479 11.6328 22.9198 11.5626 22.9198 11.4362V6.52211C22.9198 6.39575 22.9619 6.32555 23.0462 6.24131L25.433 3.85447C25.5172 3.77023 25.6015 3.74215 25.7138 3.74215H29.3362C29.4485 3.74215 29.5327 3.77023 29.617 3.85447L31.358 5.59546C31.4422 5.6797 31.4703 5.76394 31.4703 5.87626V10.7903C31.4703 10.9167 31.4282 10.9869 31.3439 11.0711L28.9571 13.458ZM24.7029 12.2084H28.3112L30.1084 10.4113V5.52526C30.1084 5.25849 29.954 5.10405 29.6872 5.10405H26.0788L24.2817 6.9012V11.7872C24.2817 12.054 24.4361 12.2084 24.7029 12.2084Z" fill="url(#paint0_radial_1_306)"/>
<defs>
<radialGradient id="paint0_radial_1_306" cx="0" cy="0" r="1" gradientUnits="userSpaceOnUse" gradientTransform="translate(53.1743 -22.3192) rotate(151.809) scale(96.9914 81.7953)">
<stop stop-color="#4A4A4A"/>
<stop offset="0.526345"/>
<stop offset="1" stop-color="#4A4A4A"/>
</radialGradient>
</defs>
</svg>
