<svg width="5" height="14" viewBox="0 0 5 14" fill="none" xmlns="http://www.w3.org/2000/svg">
<path d="M1.78906 12.7812C1.72656 12.9323 1.63281 13.0547 1.50781 13.1484C1.38281 13.2422 1.24479 13.2891 1.09375 13.2891C0.848958 13.2891 0.645833 13.2083 0.484375 13.0469C0.322917 12.8906 0.242188 12.6953 0.242188 12.4609C0.242188 12.3359 0.268229 12.2005 0.320312 12.0547C0.377604 11.9089 0.427083 11.7812 0.46875 11.6719L2.67188 6.14844V7.14062L0.46875 1.625C0.427083 1.51042 0.377604 1.38021 0.320312 1.23438C0.268229 1.08854 0.242188 0.955729 0.242188 0.835938C0.242188 0.601562 0.322917 0.40625 0.484375 0.25C0.645833 0.0885417 0.848958 0.0078125 1.09375 0.0078125C1.24479 0.0078125 1.38281 0.0546875 1.50781 0.148438C1.63281 0.236979 1.72656 0.359375 1.78906 0.515625L3.79688 5.52344C3.86979 5.71094 3.9401 5.90104 4.00781 6.09375C4.07552 6.28646 4.10938 6.46875 4.10938 6.64062C4.10938 6.82292 4.07552 7.01042 4.00781 7.20312C3.9401 7.39062 3.86979 7.57812 3.79688 7.76562L1.78906 12.7812Z" fill="#CCCCCC"/>
</svg>
