<svg width="19" height="15" viewBox="0 0 19 15" fill="none" xmlns="http://www.w3.org/2000/svg">
<path d="M3.14844 14.4297C2.39323 14.4297 1.82552 14.2422 1.44531 13.8672C1.07031 13.4922 0.882812 12.9349 0.882812 12.1953V3.15625C0.882812 2.41146 1.07031 1.85417 1.44531 1.48438C1.82552 1.10938 2.39323 0.921875 3.14844 0.921875H15.9922C16.7474 0.921875 17.3125 1.10938 17.6875 1.48438C18.0625 1.85938 18.25 2.41667 18.25 3.15625V12.1953C18.25 12.9349 18.0625 13.4922 17.6875 13.8672C17.3125 14.2422 16.7474 14.4297 15.9922 14.4297H3.14844ZM3.16406 13.3438H15.9766C16.3568 13.3438 16.651 13.2422 16.8594 13.0391C17.0677 12.8359 17.1719 12.5339 17.1719 12.1328V3.21094C17.1719 2.8099 17.0677 2.50781 16.8594 2.30469C16.651 2.09635 16.3568 1.99219 15.9766 1.99219H3.16406C2.77865 1.99219 2.48177 2.09635 2.27344 2.30469C2.07031 2.50781 1.96875 2.8099 1.96875 3.21094V12.1328C1.96875 12.5339 2.07031 12.8359 2.27344 13.0391C2.48177 13.2422 2.77865 13.3438 3.16406 13.3438ZM8.1875 10.5547C8.07812 10.6224 7.96875 10.6536 7.85938 10.6484C7.75 10.638 7.65885 10.599 7.58594 10.5312C7.51302 10.4583 7.47656 10.3672 7.47656 10.2578V5.09375C7.47656 4.97917 7.51302 4.89062 7.58594 4.82812C7.66406 4.76042 7.75781 4.72135 7.86719 4.71094C7.98177 4.70052 8.08854 4.72656 8.1875 4.78906L12.3906 7.28906C12.4948 7.35156 12.5625 7.43229 12.5938 7.53125C12.625 7.63021 12.625 7.72917 12.5938 7.82812C12.5625 7.92188 12.4948 8 12.3906 8.0625L8.1875 10.5547Z" fill="#535353"/>
</svg>
